<?xml version="1.0" standalone="no"?><!DOCTYPE svg PUBLIC "-//W3C//DTD SVG 1.1//EN" "http://www.w3.org/Graphics/SVG/1.1/DTD/svg11.dtd"><svg t="1505797948126" class="icon" style="" viewBox="0 0 1024 1024" version="1.1" xmlns="http://www.w3.org/2000/svg" p-id="2916" xmlns:xlink="http://www.w3.org/1999/xlink" width="200" height="200"><defs><style type="text/css"></style></defs><path d="M907.965264 119.016651h-90.51962V76.534094c0-28.443819-23.493064-51.503001-52.467979-51.503001-28.979008 0-52.472072 23.063275-52.472072 51.503001v42.482557H311.493383V76.534094c0-28.443819-23.493064-51.503001-52.467978-51.503001-28.977985 0-52.467979 23.063275-52.467979 51.503001v42.482557h-90.523713c-49.876967 0-90.466408 39.822984-90.466408 88.784092v702.388165c0 48.961108 40.58944 88.779999 90.466408 88.779999h791.930527c49.876967 0 90.466408-39.818891 90.466408-88.779999V207.800743c0.001023-48.961108-40.588417-88.784092-90.465384-88.784092z m11.760858 791.172257c-0.004093 6.356778-5.278213 11.525498-11.760858 11.525498H116.034736c-6.474458 0-11.756765-5.172813-11.756764-11.525498V352.964914h815.44815v557.223994zM215.468376 590.034261h112.605638c14.497179 0 26.233478-11.521404 26.233478-25.755594V491.435639c0-14.230096-11.736299-25.747407-26.233478-25.747408H215.468376c-14.497179 0-26.229384 11.517311-26.229384 25.747408v72.844051c0 14.233166 11.732206 25.75457 26.229384 25.754571z m240.232387 0h112.589264c14.497179 0 26.233478-11.521404 26.233478-25.755594V491.435639c0-14.230096-11.736299-25.747407-26.233478-25.747408H455.700763c-14.505365 0-26.237571 11.517311-26.237571 25.747408v72.844051c0 14.233166 11.732206 25.75457 26.237571 25.754571z m240.228293 0h112.576985c14.497179 0 26.233478-11.521404 26.233478-25.755594V491.435639c0-14.230096-11.728112-25.747407-26.233478-25.747408H695.929056c-14.497179 0-26.230408 11.517311-26.230408 25.747408v72.844051c0 14.233166 11.729136 25.75457 26.230408 25.754571z m-480.46068 214.075656h112.605638c14.497179 0 26.233478-11.517311 26.233478-25.755593v-72.835866c0-14.238282-11.736299-25.7515-26.233478-25.7515H215.468376c-14.497179 0-26.229384 11.513218-26.229384 25.7515v72.835866c0 14.238282 11.732206 25.755594 26.229384 25.755593z m240.232387 0h112.589264c14.497179 0 26.233478-11.517311 26.233478-25.755593v-72.835866c0-14.238282-11.736299-25.7515-26.233478-25.7515H455.700763c-14.505365 0-26.237571 11.513218-26.237571 25.7515v72.835866c0 14.238282 11.732206 25.755594 26.237571 25.755593z m240.228293 0h112.576985c14.497179 0 26.233478-11.517311 26.233478-25.755593v-72.835866c0-14.238282-11.728112-25.7515-26.233478-25.7515H695.929056c-14.497179 0-26.230408 11.513218-26.230408 25.7515v72.835866c0 14.238282 11.729136 25.755594 26.230408 25.755593z" fill="" p-id="2917"></path></svg>