<?xml version="1.0" encoding="utf-8"?>
<!-- Generator: Adobe Illustrator 21.0.0, SVG Export Plug-In . SVG Version: 6.00 Build 0)  -->
<svg version="1.1" id="图层_1" xmlns="http://www.w3.org/2000/svg" xmlns:xlink="http://www.w3.org/1999/xlink" x="0px" y="0px"
	 viewBox="0 0 64 64" style="enable-background:new 0 0 64 64;" xml:space="preserve">
<style type="text/css">
	.st0{fill:#666666;}
</style>
<g>
	<path class="st0" d="M57.4,47.5c0,4.5-1,7.8-2.9,9.8c-2,2-5.1,3-9.3,3H18.7c-4,0-7-1-8.9-3.1C8,55.1,7,52,7,47.7V13.3
		c0-3.1,1-5.7,3.1-7.7c2.1-2,4.8-3,8.1-3H45c4,0,7.1,1,9.2,2.9c2.1,2,3.2,4.8,3.2,8.4V47.5z M55.1,47.5V13.9c0-2.9-0.9-5.1-2.6-6.7
		c-1.7-1.6-4.2-2.4-7.5-2.4H18.3c-2.6,0-4.8,0.8-6.5,2.4c-1.7,1.6-2.5,3.6-2.5,6v34.4c0,3.5,0.8,6.1,2.3,7.8
		c1.5,1.7,3.9,2.5,7.1,2.5h26.5c3.4,0,5.9-0.8,7.5-2.4C54.3,53.9,55.1,51.2,55.1,47.5z M42.5,24.7c0,0.4-0.1,0.7-0.2,0.8
		c-0.2,0.1-0.5,0.2-1,0.2H23.5c-0.5,0-0.8-0.1-0.9-0.2c-0.1-0.2-0.2-0.5-0.2-1v-5.6c0-0.5,0.1-0.9,0.2-1.1c0.1-0.2,0.4-0.3,1-0.3
		h17.9c0.7,0,1.1,0.5,1.1,1.5V24.7z M42.8,44.3c0,0.5-0.1,0.8-0.2,0.9c-0.2,0.2-0.5,0.2-1,0.2h-18c-0.5,0-0.8-0.1-0.9-0.2
		c-0.1-0.2-0.2-0.5-0.2-1.1v-5c0-0.6,0.1-1,0.2-1.1c0.1-0.1,0.4-0.2,0.9-0.2h18.1c0.5,0,0.9,0.1,1,0.3c0.1,0.2,0.2,0.6,0.2,1.1V44.3
		z M40.4,22.9v-2.9c0-0.3-0.1-0.5-0.4-0.5H25c-0.3,0-0.5,0.1-0.5,0.4v3.2c0,0.3,0.2,0.5,0.7,0.5h14.6C40.2,23.6,40.4,23.4,40.4,22.9
		z M40.7,42.5v-1.8c0-0.5-0.2-0.8-0.7-0.8H25.8c-0.9,0-1.4,0.4-1.4,1.1v1.5c0,0.4,0.1,0.6,0.2,0.7c0.2,0.1,0.4,0.2,0.8,0.2h14.3
		C40.4,43.4,40.7,43.1,40.7,42.5z"/>
</g>
<g>
</g>
<g>
</g>
<g>
</g>
<g>
</g>
<g>
</g>
<g>
</g>
<g>
</g>
<g>
</g>
<g>
</g>
<g>
</g>
<g>
</g>
<g>
</g>
<g>
</g>
<g>
</g>
<g>
</g>
</svg>
