<?xml version="1.0" encoding="utf-8"?>
<!-- Generator: Adobe Illustrator 21.0.0, SVG Export Plug-In . SVG Version: 6.00 Build 0)  -->
<svg version="1.1" id="图层_1" xmlns="http://www.w3.org/2000/svg" xmlns:xlink="http://www.w3.org/1999/xlink" x="0px" y="0px"
	 viewBox="0 0 1063 50" style="enable-background:new 0 0 1063 50;" xml:space="preserve">
<style type="text/css">
	.st0{fill:#FFFFFF;stroke:#000000;stroke-width:3;stroke-miterlimit:10;}
	.st1{font-family:'AdobeSongStd-Light-GBpc-EUC-H';}
	.st2{font-size:17px;}
	.st3{fill:url(#SVGID_1_);stroke:#000000;stroke-width:3;stroke-miterlimit:10;}
	.st4{fill:#FF0000;stroke:#000000;stroke-width:3;stroke-miterlimit:10;}
	.st5{font-size:24px;}
	.st6{fill:#0000FF;}
</style>
<g>
	<path class="st0" d="M97.5,42.5h-83c-2.8,0-5-2.3-5-5v-25c0-2.8,2.3-5,5-5h83c2.8,0,5,2.3,5,5v25C102.5,40.3,100.3,42.5,97.5,42.5z
		"/>
	<text transform="matrix(1 0 0 1 16.3662 31.4365)" class="st1 st2">12345678</text>
</g>
<g>
	
		<linearGradient id="SVGID_1_" gradientUnits="userSpaceOnUse" x1="257.1197" y1="27" x2="312.0769" y2="27" gradientTransform="matrix(1 0 0 -1 0 52)">
		<stop  offset="0" style="stop-color:#FFFFFF"/>
		<stop  offset="1" style="stop-color:#000000"/>
	</linearGradient>
	<path class="st3" d="M308.5,42.5h-83c-2.8,0-5-2.3-5-5v-25c0-2.8,2.3-5,5-5h83c2.8,0,5,2.3,5,5v25
		C313.5,40.3,311.3,42.5,308.5,42.5z"/>
	<text transform="matrix(1 0 0 1 227.3662 31.4365)" class="st1 st2">12345678</text>
</g>
<g>
	<path class="st4" d="M733.5,42.5h-83c-2.8,0-5-2.3-5-5v-25c0-2.8,2.3-5,5-5h83c2.8,0,5,2.3,5,5v25
		C738.5,40.3,736.3,42.5,733.5,42.5z"/>
	<text transform="matrix(1 0 0 1 652.3662 31.4365)" class="st1 st2">12345678</text>
</g>
<g>
	<path class="st0" d="M520.5,42.5h-83c-2.8,0-5-2.3-5-5v-25c0-2.8,2.3-5,5-5h83c2.8,0,5,2.3,5,5v25
		C525.5,40.3,523.3,42.5,520.5,42.5z"/>
</g>
<text transform="matrix(1 0 0 1 109.0425 34.9438)" class="st1 st5">正常样本</text>
<text transform="matrix(1 0 0 1 323.0425 34.9438)" class="st1 st5">空管</text>
<text transform="matrix(1 0 0 1 535.0425 34.9438)" class="st1 st5">空孔</text>
<text transform="matrix(1 0 0 1 746.0425 34.9438)" class="st1 st5">问题样本</text>
<g>
	<path class="st0" d="M943.5,42.5h-83c-2.8,0-5-2.3-5-5v-25c0-2.8,2.3-5,5-5h83c2.8,0,5,2.3,5,5v25
		C948.5,40.3,946.3,42.5,943.5,42.5z"/>
	<text transform="matrix(1 0 0 1 862.3662 31.4365)" class="st1 st2">12345678</text>
</g>
<text transform="matrix(1 0 0 1 955.0425 34.9438)" class="st1 st5">批注样本</text>
<polyline class="st6" points="937,8.9 947,8.9 947,18.9 "/>
</svg>
