<?xml version="1.0" encoding="utf-8"?>
<!-- Generator: Adobe Illustrator 21.0.0, SVG Export Plug-In . SVG Version: 6.00 Build 0)  -->
<svg version="1.1" id="图层_1" xmlns="http://www.w3.org/2000/svg" xmlns:xlink="http://www.w3.org/1999/xlink" x="0px" y="0px"
	 viewBox="0 0 319 349" style="enable-background:new 0 0 319 349;" xml:space="preserve">
<style type="text/css">
	.st0{fill:#FFFFFF;}
	.st1{fill:#97C1FF;}
	.st2{fill:#0E05AF;}
	.st3{fill:#E8FC2B;}
	.st4{fill:#7BB7FF;}
	.st5{fill:#438EE8;}
	.st6{fill:#515150;}
	.st7{fill:#4737DD;}
</style>
<g>
	<path class="st0" d="M287.3,2.1c-20.8,0-41.5,0-62.3,0c-21.2,0-53.7-6.1-65.8,16.3c-5.3,9.9-5.9,28-2,38.6
		c2.3,6.2,7.5,10.1,9.1,15.8c1.6,5.7,0,14.2,0,20c0,4.6,2.1,14.7,0,18.6c-3.5,6.5,0.8,0.1-8.1,4.7c-9.8,5.1-19.4,10.2-29,15.7
		c0-20,4.9-41.6-12.9-54.7C102.2,66.7,75.8,48,57.7,53.3c-14,4.1-38.8,17.6-48.7,28.6c-11.5,12.8-8.3,46.9-6.3,62.7
		c2.6,21.1,29.6,31.1,46.5,40.1c9.8,5.2,16.4,7.5,27.7,3.3c6.4-2.4,15.9-13.3,22.6-13.1c7.4,0.2,14.6,8.2,15.6,14
		c2,11.6-6.1,12.7-15.1,17.9c-23,13.4-22,27-22,51.7c0,11-2.4,25.3,4.6,34.7c6.4,8.6,20,13.7,29.1,18.9c8.4,4.9,19.3,13.7,29.6,13.7
		c11.1,0,22.8-9.8,32-15.1c30.3,62.7,126.2,45.1,133.5-23.6c2.9-27.2,0.3-55.8,0.3-83c0-39.2,0-78.5,0-117.7c0-4-1-9.9,0-13.7
		c1.8-6.8,8.2-11,10.1-18.8C322.7,32.2,314.1,2.1,287.3,2.1z"/>
	<g>
		<path d="M166.4,276.1c3.3,0,6-2.7,6-6v-28c0-3.3-2.7-6-6-6c-3.3,0-6,2.7-6,6v28C160.4,273.4,163.1,276.1,166.4,276.1z
			 M162.6,242.1c0-2.1,1.7-3.8,3.8-3.8c2.1,0,3.8,1.7,3.8,3.8v28c0,2.1-1.7,3.8-3.8,3.8c-2.1,0-3.8-1.7-3.8-3.8V242.1z"/>
		<path d="M116.3,236.1c-3.3,0-6,2.7-6,6v28c0,3.3,2.7,6,6,6c3.3,0,6-2.7,6-6v-28C122.3,238.8,119.6,236.1,116.3,236.1z
			 M120.1,270.2c0,2.1-1.7,3.8-3.8,3.8c-2.1,0-3.8-1.7-3.8-3.8v-28c0-2.1,1.7-3.8,3.8-3.8c2.1,0,3.8,1.7,3.8,3.8V270.2z"/>
		<path d="M32.2,101.7v19.5v19.5l33.7,19.5l33.7-19.5v-19.5v-19.5L65.9,82.3L32.2,101.7z M97.4,121.2v18.2l-31.5,18.2l-31.5-18.2
			v-18.2V103l31.5-18.2L97.4,103V121.2z"/>
		<path d="M145,171.4v38.9l33.7,19.5l9.8-5.7c0-20.2,0-43.7,0-66.5l-9.8-5.7L145,171.4z M186.3,222.9l-7.6,4.4L147.2,209v-36.4
			l31.5-18.2l7.6,4.4V222.9z"/>
		<path d="M107.6,236.7v19.5v19.5l33.7,19.5l33.7-19.5v-19.5v-19.5l-33.7-19.5L107.6,236.7z M172.9,256.1v18.2l-31.5,18.2
			l-31.5-18.2v-18.2v-18.2l31.5-18.2l31.5,18.2V256.1z"/>
		<path d="M287.3,22H186.2c-6.1,0-11.1,5-11.1,11.1v7v7c0,6.1,5,11.1,11.1,11.1h0.1v27.5v59l-6.5-3.8c-0.3-0.2-0.7-0.3-1.1-0.3
			c-0.4,0-0.8,0.1-1.1,0.3l-36.5,21.1l-3-1.7c0.8,0.4,1.6,0.6,2.5,0.6c1,0,2.1-0.3,3-0.8l24.3-14c1.4-0.8,2.4-2.1,2.8-3.6
			c0.4-1.5,0.2-3.2-0.6-4.5c-1.1-1.8-3.1-3-5.2-3c-1,0-2.1,0.3-3,0.8l-24.3,14c-2.9,1.7-3.8,5.3-2.2,8.2c0.4,0.8,1.1,1.4,1.8,1.9
			l-27.6-15.9v-22.7v-24c0-0.8-0.4-1.5-1.1-1.9L67,71.4c-0.3-0.2-0.7-0.3-1.1-0.3c-0.4,0-0.8,0.1-1.1,0.3l-41.5,24
			c-0.7,0.4-1.1,1.1-1.1,1.9v24v24c0,0.8,0.4,1.5,1.1,1.9l41.5,24c0.3,0.2,0.7,0.3,1.1,0.3c0.4,0,0.8-0.1,1.1-0.3l32.6-18.8
			l35.4,20.5v36.7l-36.3,20.9c-0.7,0.4-1.1,1.1-1.1,1.9v24v24c0,0.8,0.4,1.5,1.1,1.9l41.5,24c0.3,0.2,0.7,0.3,1.1,0.3
			c0.4,0,0.8-0.1,1.1-0.3l41.5-24c0.7-0.4,1.1-1.1,1.1-1.9v-24v-18.5l1.3-0.7v43.5c0,27.9,22.6,50.5,50.5,50.5
			c27.8,0,50.5-22.7,50.5-50.5V85.8V58.2h0.1c6.1,0,11.1-5,11.1-11.1v-7v-7C298.5,27,293.5,22,287.3,22z M138.7,151.7l24.3-14
			c0.6-0.3,1.3-0.5,1.9-0.5c1.3,0,2.6,0.7,3.3,1.9c1,1.8,0.4,4.1-1.4,5.2l-24.3,14c-0.6,0.3-1.3,0.5-1.9,0.5c-1.3,0-2.6-0.7-3.3-1.9
			C136.3,155,136.9,152.7,138.7,151.7z M285.1,85.8c0,61,0,194.5,0,194.6c0,26.7-21.6,48.3-48.3,48.3c-26.7,0-48.3-21.6-48.3-48.3
			c0-0.2,0-19.7,0-47.3l-5.6,3.3v19.7v24l-41.5,24l-41.5-24v-24v-24l37.4-21.6v-39.2l-37.6-21.7l-33.7,19.5l-41.5-24v-24v-24
			l41.5-24l41.5,24v24v24l33.7,19.5l37.6-21.7l9.8,5.7c0-23.6,0-46,0-62.8c0-13.4,0-23.4,0-27.5h96.6
			C285.1,62.4,285.1,72.3,285.1,85.8z M296.3,40.1v7c0,4.9-4,9-9,9h-0.1c0-1.2-1-2.2-2.2-2.2h-96.6c-1.2,0-2.2,1-2.2,2.2h-0.1
			c-4.9,0-8.9-4-8.9-9v-7v-7c0-5,4-9,8.9-9h101.1c4.9,0,9,4,9,9V40.1z"/>
		<path d="M62.6,87.3l-24.3,14c-1.4,0.8-2.4,2.1-2.8,3.6c-0.4,1.5-0.2,3.2,0.6,4.5c1.1,1.8,3.1,3,5.2,3c1,0,2.1-0.3,3-0.8l24.3-14
			c2.9-1.6,3.8-5.3,2.2-8.2c-1.1-1.8-3-3-5.2-3C64.5,86.5,63.5,86.8,62.6,87.3z M68.9,90.6c1.1,1.8,0.4,4.1-1.4,5.2l-24.3,14
			c-0.6,0.3-1.3,0.5-1.9,0.5c-1.3,0-2.6-0.7-3.3-1.9c-1-1.8-0.4-4.1,1.4-5.2l24.3-14c0.6-0.3,1.3-0.5,1.9-0.5
			C66.9,88.7,68.2,89.3,68.9,90.6z"/>
	</g>
	<g>
		<path class="st1" d="M188.5,56.1c0,0,0,223.8,0,224.3c0,26.7,21.6,48.3,48.3,48.3c26.7,0,48.3-21.6,48.3-48.3
			c0-0.1,0-224.3,0-224.3H188.5z"/>
		<polygon class="st2" points="141.4,304.1 99.8,280.1 99.8,256.1 107.6,256.1 107.6,275.6 141.4,295 175,275.6 175,256.1 
			182.9,256.1 182.9,280.1 		"/>
		<path class="st3" d="M162.6,242.1c0-2.1,1.7-3.8,3.8-3.8l0,0c2.1,0,3.8,1.7,3.8,3.8v28c0,2.1-1.7,3.8-3.8,3.8l0,0
			c-2.1,0-3.8-1.7-3.8-3.8V242.1z"/>
		<path class="st3" d="M112.5,242.1c0-2.1,1.7-3.8,3.8-3.8l0,0c2.1,0,3.8,1.7,3.8,3.8v28c0,2.1-1.7,3.8-3.8,3.8l0,0
			c-2.1,0-3.8-1.7-3.8-3.8V242.1z"/>
		<rect x="188.5" y="56.1" class="st4" width="96.6" height="29.7"/>
		<path class="st3" d="M269.4,204.6h-65.3c0,0,0,74.8,0,75.1c0,18,14.6,32.7,32.6,32.7c18,0,32.6-14.6,32.6-32.7
			C269.4,279.4,269.4,204.6,269.4,204.6z"/>
		<circle class="st3" cx="243.5" cy="207.1" r="15.7"/>
		<ellipse class="st3" cx="269.4" cy="180.5" rx="9.2" ry="9.2"/>
		<ellipse class="st3" cx="243.5" cy="160.3" rx="9.2" ry="9.2"/>
		<circle class="st3" cx="236.8" cy="121.1" r="6"/>
		<path class="st5" d="M296.3,40.1v7c0,4.9-4,9-9,9H186.2c-4.9,0-8.9-4-8.9-9v-7H296.3z"/>
		<path class="st1" d="M296.3,33.2v7h-119v-7c0-5,4-9,8.9-9h101.1C292.3,24.2,296.3,28.2,296.3,33.2z"/>
		<rect x="195.8" y="97.7" class="st6" width="34.4" height="10.4"/>
		<rect x="195.8" y="133.9" class="st6" width="19.4" height="10.4"/>
		<rect x="195.8" y="170" class="st6" width="34.4" height="10.4"/>
		<rect x="137.2" y="171.4" class="st7" width="7.8" height="43.4"/>
		<g>
			<path class="st2" d="M99.6,121.2h7.8v-24l-41.5-24l-41.5,24v24h7.8v-19.5l33.7-19.5l33.7,19.5V121.2z"/>
			<polygon class="st7" points="178.7,151.9 188.5,157.6 188.5,148.6 178.7,142.9 141.1,164.6 107.4,145.2 107.4,121.2 99.6,121.2 
				99.6,140.7 65.9,160.1 32.2,140.7 32.2,121.2 24.4,121.2 24.4,145.2 65.9,169.1 99.6,149.7 137.2,171.4 137.2,210.6 99.8,232.2 
				99.8,256.1 107.6,256.1 107.6,236.7 141.4,217.2 175,236.7 175,256.1 182.9,256.1 182.9,236.4 188.5,233.1 188.5,224.1 
				178.7,229.8 145,210.3 145,171.4 			"/>
		</g>
		<path class="st3" d="M63.7,89.2c1.8-1,4.1-0.4,5.2,1.4l0,0c1.1,1.8,0.4,4.1-1.4,5.2l-24.3,14c-1.8,1-4.1,0.4-5.2-1.4l0,0
			c-1-1.8-0.4-4.1,1.4-5.2L63.7,89.2z"/>
		<path class="st3" d="M142.5,158.2c-1.8,1-4.1,0.4-5.2-1.4l0,0c-1.1-1.8-0.4-4.1,1.4-5.2l24.3-14c1.8-1.1,4.1-0.4,5.2,1.4l0,0
			c1,1.8,0.4,4.1-1.4,5.2L142.5,158.2z"/>
	</g>
</g>
</svg>
