<?xml version="1.0" encoding="utf-8"?>
<!-- Generator: Adobe Illustrator 21.0.0, SVG Export Plug-In . SVG Version: 6.00 Build 0)  -->
<svg version="1.1" id="图层_1" xmlns="http://www.w3.org/2000/svg" xmlns:xlink="http://www.w3.org/1999/xlink" x="0px" y="0px"
	 viewBox="0 0 64 64" style="enable-background:new 0 0 64 64;" xml:space="preserve">
<style type="text/css">
	.st0{fill:#666666;}
</style>
<g>
	<path class="st0" d="M58.8,50.2c0,3.6-0.8,6.2-2.3,7.7s-4,2.3-7.5,2.3h-9.5c-2.9,0-4.9-0.7-6.1-2c-1.2-1.4-1.8-3.4-1.8-6.1
		c0-2.7,0.4-4.6,1.1-5.8c0.1-0.2,0.1-0.3,0.1-0.4s-0.2-0.2-0.6-0.2h-4.4c-0.2,0-0.4,0.1-0.5,0.3c-0.7,2.9-1.5,5.1-2.4,6.6
		c-0.8,1.5-1.7,2.9-2.6,4.2C21.4,58,20.3,59,19,59.6c-1.3,0.6-2.7,0.9-4,0.9c-2.1,0-4.1-0.8-6.1-2.4c-2-1.6-3-3.3-3-5
		c0-1.7,0.5-3.6,1.5-5.5c1.7-3.2,2.9-6.6,3.7-10.2c0.7-3.6,1.1-8.3,1.1-14.2v-8c0-4.1,0.8-7,2.4-8.8c1.6-1.8,4.2-2.6,7.8-2.6h26
		c4.1,0,6.8,0.8,8.2,2.5c1.4,1.7,2.1,4.5,2.1,8.5V50.2z M56.5,50.2V14.7c0-3.2-0.5-5.4-1.6-6.7c-1.1-1.3-3.2-2-6.4-2h-26
		c-2.8,0-4.8,0.7-6.1,2.1c-1.3,1.4-1.9,3.7-1.9,7v8c0,5.9-0.4,10.8-1.2,14.7c-0.8,3.8-2.1,7.4-3.8,10.8c-0.7,1.4-1.1,2.7-1.1,4
		c0,1.3,0.7,2.5,2.2,3.8c1.5,1.2,2.9,1.9,4.4,1.9s2.8-0.4,3.9-1.1c1.1-0.8,2.3-2.2,3.5-4.3c1.2-2.1,2.2-4.6,2.9-7.4
		c0.2-0.9,0.5-1.4,0.7-1.6c0.2-0.2,0.5-0.3,0.8-0.3h6.4c0.4,0,1-0.2,1.8-0.6c0.8-0.5,2-0.7,3.7-0.7h4.2c0.5,0,0.8,0.5,0.8,1.5
		c0,1-0.3,1.5-0.9,1.5h-2.7c-4,0-6,2.1-6,6.2c0,2.5,0.4,4.2,1.2,5.2c0.8,1,2.3,1.5,4.3,1.5H49c2.6,0,4.6-0.6,5.7-1.8
		C55.9,55,56.5,53,56.5,50.2z M42.6,30.9c0.7,0,1,0.4,1,1.1c0,0.7-0.3,1.1-1,1.1H28.2c-0.4,0-0.6-0.1-0.7-0.2
		c-0.1-0.2-0.2-0.4-0.2-0.8c0-0.4,0.1-0.7,0.2-0.9c0.1-0.2,0.4-0.3,0.7-0.3H42.6z M42.6,17.7c0.7,0,1,0.4,1,1.1c0,0.7-0.3,1.1-1,1.1
		H28.6c-0.4,0-0.6-0.1-0.7-0.2c-0.1-0.2-0.2-0.4-0.2-0.8c0-0.4,0.1-0.7,0.2-0.9c0.1-0.2,0.4-0.3,0.7-0.3H42.6z"/>
</g>
<g>
</g>
<g>
</g>
<g>
</g>
<g>
</g>
<g>
</g>
<g>
</g>
<g>
</g>
<g>
</g>
<g>
</g>
<g>
</g>
<g>
</g>
<g>
</g>
<g>
</g>
<g>
</g>
<g>
</g>
</svg>
