<?xml version="1.0" encoding="utf-8"?>
<!-- Generator: Adobe Illustrator 21.0.0, SVG Export Plug-In . SVG Version: 6.00 Build 0)  -->
<svg version="1.1" id="图层_1" xmlns="http://www.w3.org/2000/svg" xmlns:xlink="http://www.w3.org/1999/xlink" x="0px" y="0px"
	 viewBox="0 0 319 454" style="enable-background:new 0 0 319 454;" xml:space="preserve">
<style type="text/css">
	.st0{fill:#FFFFFF;}
	.st1{fill:#97C1FF;}
	.st2{fill:#0E05AF;}
	.st3{fill:#E8FC2B;}
	.st4{fill:#7BB7FF;}
	.st5{fill:#438EE8;}
	.st6{fill:#515150;}
	.st7{fill:#4737DD;}
	.st8{fill:#FF0000;}
	.st9{font-family:'MicrosoftYaHeiUI-Bold';}
	.st10{font-size:36px;}
</style>
<g>
	<path class="st0" d="M287.3,18.6c-20.8,0-41.5,0-62.3,0c-21.2,0-53.7-6.1-65.8,16.3c-5.3,9.9-5.9,28-2,38.6
		c2.3,6.2,7.5,10.1,9.1,15.8c1.6,5.7,0,14.2,0,20c0,4.6,2.1,14.7,0,18.6c-3.5,6.5,0.8,0.1-8.1,4.7c-9.8,5.1-19.4,10.2-29,15.7
		c0-20,4.9-41.6-12.9-54.7c-14.2-10.5-40.6-29.2-58.6-23.9c-14,4.1-38.8,17.6-48.7,28.6c-11.5,12.8-8.3,46.9-6.3,62.7
		c2.6,21.1,29.6,31.1,46.5,40.1c9.8,5.2,16.4,7.5,27.7,3.3c6.4-2.4,15.9-13.3,22.6-13.1c7.4,0.2,14.6,8.2,15.6,14
		c2,11.6-6.1,12.7-15.1,17.9c-23,13.4-22,27-22,51.7c0,11-2.4,25.3,4.6,34.7c6.4,8.6,20,13.7,29.1,18.9c8.4,4.9,19.3,13.7,29.6,13.7
		c11.1,0,22.8-9.8,32-15.1c30.3,62.7,126.2,45.1,133.5-23.6c2.9-27.2,0.3-55.8,0.3-83c0-39.2,0-78.5,0-117.7c0-4-1-9.9,0-13.7
		c1.8-6.8,8.2-11,10.1-18.8C322.7,48.7,314.1,18.6,287.3,18.6z"/>
	<g>
		<path d="M166.4,292.6c3.3,0,6-2.7,6-6v-28c0-3.3-2.7-6-6-6c-3.3,0-6,2.7-6,6v28C160.4,289.9,163.1,292.6,166.4,292.6z
			 M162.6,258.6c0-2.1,1.7-3.8,3.8-3.8c2.1,0,3.8,1.7,3.8,3.8v28c0,2.1-1.7,3.8-3.8,3.8c-2.1,0-3.8-1.7-3.8-3.8V258.6z"/>
		<path d="M116.3,252.6c-3.3,0-6,2.7-6,6v28c0,3.3,2.7,6,6,6c3.3,0,6-2.7,6-6v-28C122.3,255.3,119.6,252.6,116.3,252.6z
			 M120.1,286.7c0,2.1-1.7,3.8-3.8,3.8c-2.1,0-3.8-1.7-3.8-3.8v-28c0-2.1,1.7-3.8,3.8-3.8c2.1,0,3.8,1.7,3.8,3.8V286.7z"/>
		<path d="M32.2,118.2v19.5v19.5l33.7,19.5l33.7-19.5v-19.5v-19.5L65.9,98.8L32.2,118.2z M97.4,137.7v18.2l-31.5,18.2l-31.5-18.2
			v-18.2v-18.2l31.5-18.2l31.5,18.2V137.7z"/>
		<path d="M145,187.9v38.9l33.7,19.5l9.8-5.7c0-20.2,0-43.7,0-66.5l-9.8-5.7L145,187.9z M186.3,239.4l-7.6,4.4l-31.5-18.2v-36.4
			l31.5-18.2l7.6,4.4V239.4z"/>
		<path d="M107.6,253.2v19.5v19.5l33.7,19.5l33.7-19.5v-19.5v-19.5l-33.7-19.5L107.6,253.2z M172.9,272.6v18.2L141.4,309l-31.5-18.2
			v-18.2v-18.2l31.5-18.2l31.5,18.2V272.6z"/>
		<path d="M287.3,38.5H186.2c-6.1,0-11.1,5-11.1,11.1v7v7c0,6.1,5,11.1,11.1,11.1h0.1v27.5v59l-6.5-3.8c-0.3-0.2-0.7-0.3-1.1-0.3
			c-0.4,0-0.8,0.1-1.1,0.3l-36.5,21.1l-3-1.7c0.8,0.4,1.6,0.6,2.5,0.6c1,0,2.1-0.3,3-0.8l24.3-14c1.4-0.8,2.4-2.1,2.8-3.6
			c0.4-1.5,0.2-3.2-0.6-4.5c-1.1-1.8-3.1-3-5.2-3c-1,0-2.1,0.3-3,0.8l-24.3,14c-2.9,1.7-3.8,5.3-2.2,8.2c0.4,0.8,1.1,1.4,1.8,1.9
			l-27.6-15.9v-22.7v-24c0-0.8-0.4-1.5-1.1-1.9L67,87.9c-0.3-0.2-0.7-0.3-1.1-0.3c-0.4,0-0.8,0.1-1.1,0.3l-41.5,24
			c-0.7,0.4-1.1,1.1-1.1,1.9v24v24c0,0.8,0.4,1.5,1.1,1.9l41.5,24c0.3,0.2,0.7,0.3,1.1,0.3c0.4,0,0.8-0.1,1.1-0.3l32.6-18.8
			l35.4,20.5v36.7l-36.3,20.9c-0.7,0.4-1.1,1.1-1.1,1.9v24v24c0,0.8,0.4,1.5,1.1,1.9l41.5,24c0.3,0.2,0.7,0.3,1.1,0.3
			c0.4,0,0.8-0.1,1.1-0.3l41.5-24c0.7-0.4,1.1-1.1,1.1-1.9v-24v-18.5l1.3-0.7v43.5c0,27.9,22.6,50.5,50.5,50.5
			c27.8,0,50.5-22.7,50.5-50.5V102.3V74.7h0.1c6.1,0,11.1-5,11.1-11.1v-7v-7C298.5,43.5,293.5,38.5,287.3,38.5z M138.7,168.2
			l24.3-14c0.6-0.3,1.3-0.5,1.9-0.5c1.3,0,2.6,0.7,3.3,1.9c1,1.8,0.4,4.1-1.4,5.2l-24.3,14c-0.6,0.3-1.3,0.5-1.9,0.5
			c-1.3,0-2.6-0.7-3.3-1.9C136.3,171.5,136.9,169.2,138.7,168.2z M285.1,102.3c0,61,0,194.5,0,194.6c0,26.7-21.6,48.3-48.3,48.3
			c-26.7,0-48.3-21.6-48.3-48.3c0-0.2,0-19.7,0-47.3l-5.6,3.3v19.7v24l-41.5,24l-41.5-24v-24v-24l37.4-21.6v-39.2l-37.6-21.7
			l-33.7,19.5l-41.5-24v-24v-24l41.5-24l41.5,24v24v24l33.7,19.5l37.6-21.7l9.8,5.7c0-23.6,0-46,0-62.8c0-13.4,0-23.4,0-27.5h96.6
			C285.1,78.9,285.1,88.8,285.1,102.3z M296.3,56.6v7c0,4.9-4,9-9,9h-0.1c0-1.2-1-2.2-2.2-2.2h-96.6c-1.2,0-2.2,1-2.2,2.2h-0.1
			c-4.9,0-8.9-4-8.9-9v-7v-7c0-5,4-9,8.9-9h101.1c4.9,0,9,4,9,9V56.6z"/>
		<path d="M62.6,103.8l-24.3,14c-1.4,0.8-2.4,2.1-2.8,3.6c-0.4,1.5-0.2,3.2,0.6,4.5c1.1,1.8,3.1,3,5.2,3c1,0,2.1-0.3,3-0.8l24.3-14
			c2.9-1.6,3.8-5.3,2.2-8.2c-1.1-1.8-3-3-5.2-3C64.5,103,63.5,103.3,62.6,103.8z M68.9,107.1c1.1,1.8,0.4,4.1-1.4,5.2l-24.3,14
			c-0.6,0.3-1.3,0.5-1.9,0.5c-1.3,0-2.6-0.7-3.3-1.9c-1-1.8-0.4-4.1,1.4-5.2l24.3-14c0.6-0.3,1.3-0.5,1.9-0.5
			C66.9,105.2,68.2,105.8,68.9,107.1z"/>
	</g>
	<g>
		<path class="st1" d="M188.5,72.6c0,0,0,223.8,0,224.3c0,26.7,21.6,48.3,48.3,48.3c26.7,0,48.3-21.6,48.3-48.3
			c0-0.1,0-224.3,0-224.3H188.5z"/>
		<polygon class="st2" points="141.4,320.6 99.8,296.6 99.8,272.6 107.6,272.6 107.6,292.1 141.4,311.5 175,292.1 175,272.6 
			182.9,272.6 182.9,296.6 		"/>
		<path class="st3" d="M162.6,258.6c0-2.1,1.7-3.8,3.8-3.8l0,0c2.1,0,3.8,1.7,3.8,3.8v28c0,2.1-1.7,3.8-3.8,3.8l0,0
			c-2.1,0-3.8-1.7-3.8-3.8V258.6z"/>
		<path class="st3" d="M112.5,258.6c0-2.1,1.7-3.8,3.8-3.8l0,0c2.1,0,3.8,1.7,3.8,3.8v28c0,2.1-1.7,3.8-3.8,3.8l0,0
			c-2.1,0-3.8-1.7-3.8-3.8V258.6z"/>
		<rect x="188.5" y="72.6" class="st4" width="96.6" height="29.7"/>
		<path class="st3" d="M269.4,221.1h-65.3c0,0,0,74.8,0,75.1c0,18,14.6,32.7,32.6,32.7c18,0,32.6-14.6,32.6-32.7
			C269.4,295.9,269.4,221.1,269.4,221.1z"/>
		<circle class="st3" cx="243.5" cy="223.6" r="15.7"/>
		<ellipse class="st3" cx="269.4" cy="197" rx="9.2" ry="9.2"/>
		<ellipse class="st3" cx="243.5" cy="176.8" rx="9.2" ry="9.2"/>
		<circle class="st3" cx="236.8" cy="137.6" r="6"/>
		<path class="st5" d="M296.3,56.6v7c0,4.9-4,9-9,9H186.2c-4.9,0-8.9-4-8.9-9v-7H296.3z"/>
		<path class="st1" d="M296.3,49.7v7h-119v-7c0-5,4-9,8.9-9h101.1C292.3,40.7,296.3,44.7,296.3,49.7z"/>
		<rect x="195.8" y="114.2" class="st6" width="34.4" height="10.4"/>
		<rect x="195.8" y="150.4" class="st6" width="19.4" height="10.4"/>
		<rect x="195.8" y="186.5" class="st6" width="34.4" height="10.4"/>
		<rect x="137.2" y="187.9" class="st7" width="7.8" height="43.4"/>
		<g>
			<path class="st2" d="M99.6,137.7h7.8v-24l-41.5-24l-41.5,24v24h7.8v-19.5l33.7-19.5l33.7,19.5V137.7z"/>
			<polygon class="st7" points="178.7,168.4 188.5,174.1 188.5,165.1 178.7,159.4 141.1,181.1 107.4,161.7 107.4,137.7 99.6,137.7 
				99.6,157.2 65.9,176.6 32.2,157.2 32.2,137.7 24.4,137.7 24.4,161.7 65.9,185.6 99.6,166.2 137.2,187.9 137.2,227.1 99.8,248.7 
				99.8,272.6 107.6,272.6 107.6,253.2 141.4,233.7 175,253.2 175,272.6 182.9,272.6 182.9,252.9 188.5,249.6 188.5,240.6 
				178.7,246.3 145,226.8 145,187.9 			"/>
		</g>
		<path class="st3" d="M63.7,105.7c1.8-1,4.1-0.4,5.2,1.4l0,0c1.1,1.8,0.4,4.1-1.4,5.2l-24.3,14c-1.8,1-4.1,0.4-5.2-1.4l0,0
			c-1-1.8-0.4-4.1,1.4-5.2L63.7,105.7z"/>
		<path class="st3" d="M142.5,174.7c-1.8,1-4.1,0.4-5.2-1.4l0,0c-1.1-1.8-0.4-4.1,1.4-5.2l24.3-14c1.8-1.1,4.1-0.4,5.2,1.4l0,0
			c1,1.8,0.4,4.1-1.4,5.2L142.5,174.7z"/>
	</g>
</g>
<text transform="matrix(1 0 0 1 28 405.5)"><tspan x="0" y="0" class="st8 st9 st10">NCRC</tspan><tspan x="104.2" y="0" class="st9 st10"> BioBank</tspan></text>
</svg>
