<?xml version="1.0" encoding="utf-8"?>
<!-- Generator: Adobe Illustrator 21.0.0, SVG Export Plug-In . SVG Version: 6.00 Build 0)  -->
<svg version="1.1" id="图层_1" xmlns="http://www.w3.org/2000/svg" xmlns:xlink="http://www.w3.org/1999/xlink" x="0px" y="0px"
	 viewBox="0 0 319 454" style="enable-background:new 0 0 319 454;" xml:space="preserve">
<style type="text/css">
	.st0{fill:#FFFFFF;}
	.st1{fill:#97C1FF;}
	.st2{fill:#0E05AF;}
	.st3{fill:#E8FC2B;}
	.st4{fill:#7BB7FF;}
	.st5{fill:#438EE8;}
	.st6{fill:#515150;}
	.st7{fill:#4737DD;}
	.st8{fill:#FF0000;}
	.st9{font-family:'MicrosoftYaHeiUI-Bold';}
	.st10{font-size:60px;}
</style>
<g>
	<path class="st0" d="M287.1,3.8c-20.8,0-41.5,0-62.3,0c-21.2,0-53.7-6.1-65.8,16.3c-5.3,9.9-5.9,28-2,38.6
		c2.3,6.2,7.5,10.1,9.1,15.8c1.6,5.7,0,14.2,0,20c0,4.6,2.1,14.7,0,18.6c-3.5,6.5,0.8,0.1-8.1,4.7c-9.8,5.1-19.4,10.2-29,15.7
		c0-20,4.9-41.6-12.9-54.7c-14.2-10.5-40.6-29.2-58.6-23.9C43.5,59,18.7,72.5,8.8,83.5c-11.5,12.8-8.3,46.9-6.3,62.7
		c2.6,21.1,29.6,31.1,46.5,40.1c9.8,5.2,16.4,7.5,27.7,3.3c6.4-2.4,15.9-13.3,22.6-13.1c7.4,0.2,14.6,8.2,15.6,14
		c2,11.6-6.1,12.7-15.1,17.9c-23,13.4-22,27-22,51.7c0,11-2.4,25.3,4.6,34.7c6.4,8.6,20,13.7,29.1,18.9c8.4,4.9,19.3,13.7,29.6,13.7
		c11.1,0,22.8-9.8,32-15.1c30.3,62.7,126.2,45.1,133.5-23.6c2.9-27.2,0.3-55.8,0.3-83c0-39.2,0-78.5,0-117.7c0-4-1-9.9,0-13.7
		c1.8-6.8,8.2-11,10.1-18.8C322.5,33.9,313.9,3.8,287.1,3.8z"/>
	<g>
		<path d="M166.2,277.8c3.3,0,6-2.7,6-6v-28c0-3.3-2.7-6-6-6s-6,2.7-6,6v28C160.2,275.1,162.9,277.8,166.2,277.8z M162.4,243.8
			c0-2.1,1.7-3.8,3.8-3.8s3.8,1.7,3.8,3.8v28c0,2.1-1.7,3.8-3.8,3.8s-3.8-1.7-3.8-3.8V243.8z"/>
		<path d="M116.1,237.8c-3.3,0-6,2.7-6,6v28c0,3.3,2.7,6,6,6s6-2.7,6-6v-28C122.1,240.5,119.4,237.8,116.1,237.8z M119.9,271.9
			c0,2.1-1.7,3.8-3.8,3.8c-2.1,0-3.8-1.7-3.8-3.8v-28c0-2.1,1.7-3.8,3.8-3.8c2.1,0,3.8,1.7,3.8,3.8V271.9z"/>
		<path d="M32,103.4v19.5v19.5l33.7,19.5l33.7-19.5v-19.5v-19.5L65.7,84L32,103.4z M97.2,122.9v18.2l-31.5,18.2l-31.5-18.2v-18.2
			v-18.2l31.5-18.2l31.5,18.2V122.9z"/>
		<path d="M144.8,173.1V212l33.7,19.5l9.8-5.7c0-20.2,0-43.7,0-66.5l-9.8-5.7L144.8,173.1z M186.1,224.6l-7.6,4.4L147,210.8v-36.4
			l31.5-18.2l7.6,4.4V224.6z"/>
		<path d="M107.4,238.4v19.5v19.5l33.7,19.5l33.7-19.5v-19.5v-19.5l-33.7-19.5L107.4,238.4z M172.7,257.8V276l-31.5,18.2L109.7,276
			v-18.2v-18.2l31.5-18.2l31.5,18.2V257.8z"/>
		<path d="M287.1,23.7H186c-6.1,0-11.1,5-11.1,11.1v7v7c0,6.1,5,11.1,11.1,11.1h0.1v27.5v59l-6.5-3.8c-0.3-0.2-0.7-0.3-1.1-0.3
			c-0.4,0-0.8,0.1-1.1,0.3l-36.5,21.1l-3-1.7c0.8,0.4,1.6,0.6,2.5,0.6c1,0,2.1-0.3,3-0.8l24.3-14c1.4-0.8,2.4-2.1,2.8-3.6
			c0.4-1.5,0.2-3.2-0.6-4.5c-1.1-1.8-3.1-3-5.2-3c-1,0-2.1,0.3-3,0.8l-24.3,14c-2.9,1.7-3.8,5.3-2.2,8.2c0.4,0.8,1.1,1.4,1.8,1.9
			l-27.6-15.9V123V99c0-0.8-0.4-1.5-1.1-1.9l-41.5-24c-0.3-0.2-0.7-0.3-1.1-0.3s-0.8,0.1-1.1,0.3l-41.5,24C22.4,97.5,22,98.2,22,99
			v24v24c0,0.8,0.4,1.5,1.1,1.9l41.5,24c0.3,0.2,0.7,0.3,1.1,0.3s0.8-0.1,1.1-0.3l32.6-18.8l35.4,20.5v36.7l-36.3,20.9
			c-0.7,0.4-1.1,1.1-1.1,1.9v24v24c0,0.8,0.4,1.5,1.1,1.9l41.5,24c0.3,0.2,0.7,0.3,1.1,0.3c0.4,0,0.8-0.1,1.1-0.3l41.5-24
			c0.7-0.4,1.1-1.1,1.1-1.9v-24v-18.5l1.3-0.7v43.5c0,27.9,22.6,50.5,50.5,50.5c27.8,0,50.5-22.7,50.5-50.5V87.5V59.9h0.1
			c6.1,0,11.1-5,11.1-11.1v-7v-7C298.3,28.7,293.3,23.7,287.1,23.7z M138.5,153.4l24.3-14c0.6-0.3,1.3-0.5,1.9-0.5
			c1.3,0,2.6,0.7,3.3,1.9c1,1.8,0.4,4.1-1.4,5.2l-24.3,14c-0.6,0.3-1.3,0.5-1.9,0.5c-1.3,0-2.6-0.7-3.3-1.9
			C136.1,156.7,136.7,154.4,138.5,153.4z M284.9,87.5c0,61,0,194.5,0,194.6c0,26.7-21.6,48.3-48.3,48.3s-48.3-21.6-48.3-48.3
			c0-0.2,0-19.7,0-47.3l-5.6,3.3v19.7v24l-41.5,24l-41.5-24v-24v-24l37.4-21.6V173l-37.6-21.7l-33.7,19.5l-41.5-24v-24v-24l41.5-24
			l41.5,24v24v24l33.7,19.5l37.6-21.7l9.8,5.7c0-23.6,0-46,0-62.8c0-13.4,0-23.4,0-27.5H285C284.9,64.1,284.9,74,284.9,87.5z
			 M296.1,41.8v7c0,4.9-4,9-9,9H287c0-1.2-1-2.2-2.2-2.2h-96.6c-1.2,0-2.2,1-2.2,2.2h-0.1c-4.9,0-8.9-4-8.9-9v-7v-7c0-5,4-9,8.9-9
			H287c4.9,0,9,4,9,9v7H296.1z"/>
		<path d="M62.4,89l-24.3,14c-1.4,0.8-2.4,2.1-2.8,3.6c-0.4,1.5-0.2,3.2,0.6,4.5c1.1,1.8,3.1,3,5.2,3c1,0,2.1-0.3,3-0.8l24.3-14
			c2.9-1.6,3.8-5.3,2.2-8.2c-1.1-1.8-3-3-5.2-3C64.3,88.2,63.3,88.5,62.4,89z M68.7,92.3c1.1,1.8,0.4,4.1-1.4,5.2l-24.3,14
			c-0.6,0.3-1.3,0.5-1.9,0.5c-1.3,0-2.6-0.7-3.3-1.9c-1-1.8-0.4-4.1,1.4-5.2l24.3-14c0.6-0.3,1.3-0.5,1.9-0.5
			C66.7,90.4,68,91,68.7,92.3z"/>
	</g>
	<g>
		<path class="st1" d="M188.3,57.8c0,0,0,223.8,0,224.3c0,26.7,21.6,48.3,48.3,48.3s48.3-21.6,48.3-48.3c0-0.1,0-224.3,0-224.3
			S188.3,57.8,188.3,57.8z"/>
		<polygon class="st2" points="141.2,305.8 99.6,281.8 99.6,257.8 107.4,257.8 107.4,277.3 141.2,296.7 174.8,277.3 174.8,257.8 
			182.7,257.8 182.7,281.8 		"/>
		<path class="st3" d="M162.4,243.8c0-2.1,1.7-3.8,3.8-3.8l0,0c2.1,0,3.8,1.7,3.8,3.8v28c0,2.1-1.7,3.8-3.8,3.8l0,0
			c-2.1,0-3.8-1.7-3.8-3.8V243.8z"/>
		<path class="st3" d="M112.3,243.8c0-2.1,1.7-3.8,3.8-3.8l0,0c2.1,0,3.8,1.7,3.8,3.8v28c0,2.1-1.7,3.8-3.8,3.8l0,0
			c-2.1,0-3.8-1.7-3.8-3.8V243.8z"/>
		<rect x="188.3" y="57.8" class="st4" width="96.6" height="29.7"/>
		<path class="st3" d="M269.2,206.3h-65.3c0,0,0,74.8,0,75.1c0,18,14.6,32.7,32.6,32.7s32.6-14.6,32.6-32.7
			C269.2,281.1,269.2,206.3,269.2,206.3z"/>
		<circle class="st3" cx="243.3" cy="208.8" r="15.7"/>
		<ellipse class="st3" cx="269.2" cy="182.2" rx="9.2" ry="9.2"/>
		<ellipse class="st3" cx="243.3" cy="162" rx="9.2" ry="9.2"/>
		<circle class="st3" cx="236.6" cy="122.8" r="6"/>
		<path class="st5" d="M296.1,41.8v7c0,4.9-4,9-9,9H186c-4.9,0-8.9-4-8.9-9v-7H296.1z"/>
		<path class="st1" d="M296.1,34.9v7h-119v-7c0-5,4-9,8.9-9h101.1C292.1,25.9,296.1,29.9,296.1,34.9z"/>
		<rect x="195.6" y="99.4" class="st6" width="34.4" height="10.4"/>
		<rect x="195.6" y="135.6" class="st6" width="19.4" height="10.4"/>
		<rect x="195.6" y="171.7" class="st6" width="34.4" height="10.4"/>
		<rect x="137" y="173.1" class="st7" width="7.8" height="43.4"/>
		<g>
			<path class="st2" d="M99.4,122.9h7.8v-24l-41.5-24l-41.5,24v24H32v-19.5l33.7-19.5l33.7,19.5C99.4,103.4,99.4,122.9,99.4,122.9z"
				/>
			<polygon class="st7" points="178.5,153.6 188.3,159.3 188.3,150.3 178.5,144.6 140.9,166.3 107.2,146.9 107.2,122.9 99.4,122.9 
				99.4,142.4 65.7,161.8 32,142.4 32,122.9 24.2,122.9 24.2,146.9 65.7,170.8 99.4,151.4 137,173.1 137,212.3 99.6,233.9 
				99.6,257.8 107.4,257.8 107.4,238.4 141.2,218.9 174.8,238.4 174.8,257.8 182.7,257.8 182.7,238.1 188.3,234.8 188.3,225.8 
				178.5,231.5 144.8,212 144.8,173.1 			"/>
		</g>
		<path class="st3" d="M63.5,90.9c1.8-1,4.1-0.4,5.2,1.4l0,0c1.1,1.8,0.4,4.1-1.4,5.2l-24.3,14c-1.8,1-4.1,0.4-5.2-1.4l0,0
			c-1-1.8-0.4-4.1,1.4-5.2L63.5,90.9z"/>
		<path class="st3" d="M142.3,159.9c-1.8,1-4.1,0.4-5.2-1.4l0,0c-1.1-1.8-0.4-4.1,1.4-5.2l24.3-14c1.8-1.1,4.1-0.4,5.2,1.4l0,0
			c1,1.8,0.4,4.1-1.4,5.2L142.3,159.9z"/>
	</g>
</g>
<text transform="matrix(1 0 0 1 39.5487 406.7292)" class="st8 st9 st10">NC</text>
<text transform="matrix(1 0 0 1 139.1484 406.7295)" class="st9 st10"> BBC</text>
</svg>
