<?xml version="1.0" standalone="no"?><!DOCTYPE svg PUBLIC "-//W3C//DTD SVG 1.1//EN" "http://www.w3.org/Graphics/SVG/1.1/DTD/svg11.dtd"><svg t="1497852033943" class="icon" style="" viewBox="0 0 1024 1024" version="1.1" xmlns="http://www.w3.org/2000/svg" p-id="1282" xmlns:xlink="http://www.w3.org/1999/xlink" width="128" height="128"><defs><style type="text/css"></style></defs><path d="M199.475124 368.562147v521.514701c0 25.352411-51.197032 25.255197-51.197033 0V401.102261l-48.468898 34.675754c-20.690228 14.765285-50.300616-28.079522-29.804816-42.745547l398.690328-283.056728c26.614148-19.911492 43.157939-20.144806 71.617108 1.128707l395.306254 281.928021c20.494777 14.569834-5.730515 57.413618-26.420743 42.745547l-48.178279-34.287921v86.779435c0 26.480094-53.453423 26.384927-53.453422 0V365.468692L508.570901 152.827711c-3.497661-2.622734-6.79987-2.622734-10.199293-0.195452L199.475124 368.562147z" p-id="1283"></path><path d="M276.483009 473.370191h70.421885c6.994298 0 12.724813 5.730515 12.724813 12.723789v70.520124c0 6.992251-5.731538 12.723789-12.724813 12.723789h-70.421885c-6.992251 0-12.723789-5.731538-12.72379-12.723789V486.09398c-0.097214-6.895037 5.730515-12.723789 12.72379-12.723789z m167.206186 0h70.421886c6.993275 0 12.723789 5.730515 12.723789 12.723789v70.520124c0 6.992251-5.730515 12.723789-12.723789 12.723789H443.689195c-6.994298 0-12.724813-5.731538-12.724813-12.723789V486.09398c-0.097214-6.895037 5.730515-12.723789 12.724813-12.723789zM276.483009 643.257439h70.421885c6.994298 0 12.724813 5.731538 12.724813 12.72379v70.325695c0 7.187703-5.731538 12.919241-12.724813 12.919241h-70.421885c-6.992251 0-12.723789-5.731538-12.72379-12.919241v-70.325695c-0.097214-6.992251 5.730515-12.723789 12.72379-12.72379z m0 169.692821h70.421885c6.994298 0 12.724813 5.731538 12.724813 12.91924v70.325696c0 7.187703-5.731538 12.919241-12.724813 12.91924h-70.421885c-6.992251 0-12.723789-5.731538-12.72379-12.91924v-70.325696c-0.097214-7.187703 5.730515-12.919241 12.72379-12.91924z m169.596629-169.692821h70.421886c6.993275 0 12.723789 5.731538 12.723789 12.72379v70.325695c0 7.187703-5.730515 12.919241-12.723789 12.919241h-70.421886c-6.994298 0-12.724813-5.731538-12.724813-12.919241v-70.325695c-0.097214-6.992251 5.731538-12.723789 12.724813-12.72379z m0 169.692821h70.421886c6.993275 0 12.723789 5.731538 12.723789 12.91924v70.325696c0 7.187703-5.730515 12.919241-12.723789 12.91924h-70.421886c-6.994298 0-12.724813-5.731538-12.724813-12.91924v-70.325696c-0.097214-7.187703 5.731538-12.919241 12.724813-12.91924z m508.028549 73.220628l-60.228733-59.962673a170.811294 170.811294 0 0 0 41.798988-112.194268c0-94.702895-76.771501-171.473373-171.473373-171.473374-94.702895 0-171.484629 76.771501-171.484629 171.473374 0 94.703919 76.770478 171.473373 171.473373 171.473373 34.912138 0 67.385736-10.429537 94.465488-28.347629l62.372559 62.107523c9.142218 9.058306 23.886013 9.020444 32.981159-0.081864a23.282263 23.282263 0 0 0 6.898107-16.477277 23.295566 23.295566 0 0 0-6.802939-16.517185z m-189.915398-43.574424c-71.01745 0-128.591727-57.574277-128.591727-128.581494 0-71.018473 57.574277-128.591727 128.591727-128.591727S892.784516 642.99752 892.784516 714.01497c0.002047 71.007217-57.571207 128.581494-128.591727 128.581494z" p-id="1284"></path></svg>