<?xml version="1.0" standalone="no"?><!DOCTYPE svg PUBLIC "-//W3C//DTD SVG 1.1//EN" "http://www.w3.org/Graphics/SVG/1.1/DTD/svg11.dtd"><svg t="1497851915187" class="icon" style="" viewBox="0 0 1024 1024" version="1.1" xmlns="http://www.w3.org/2000/svg" p-id="883" xmlns:xlink="http://www.w3.org/1999/xlink" width="128" height="128"><defs><style type="text/css"></style></defs><path d="M979.435995 474.189667l-120.133507-136.096732c-22.512241-25.479764-66.820426-45.433796-100.793445-45.433796L659.045868 292.659139l0-81.862696c0-39.805736-32.438093-72.243829-72.243829-72.243829L77.718397 138.552613c-39.805736 0-72.243829 32.438093-72.243829 72.243829l0 374.82882c0 39.805736 32.438093 72.243829 72.243829 72.243829l10.949136 0 0 107.649445c0 39.805736 32.438093 72.243829 72.243829 72.243829l69.68562 0c5.218747 62.829619 58.020186 112.458879 122.180074 112.458879 64.159888 0 116.961327-49.526931 122.180074-112.458879L645.74318 837.762366c5.218747 62.829619 58.020186 112.458879 122.282402 112.458879 64.159888 0 116.961327-49.526931 122.180074-112.458879l56.178275 0c39.805736 0 72.243829-32.438093 72.243829-72.243829l0-166.795243C1015.455581 518.60018 1001.334266 499.055461 979.435995 474.189667zM77.718397 615.505146c-16.372539 0-29.777556-13.405016-29.777556-29.777556L47.940841 210.898771c0-16.372539 13.302688-29.777556 29.777556-29.777556l508.981313 0c16.372539 0 29.777556 13.302688 29.777556 29.777556l0 374.82882c0 16.372539-13.405016 29.777556-29.777556 29.777556L77.718397 615.505146zM352.879384 907.959628c-44.205856 0-80.123114-36.019586-80.123114-80.225442 0-44.205856 35.917258-80.123114 80.123114-80.123114 44.205856 0 80.225442 35.917258 80.225442 80.123114C433.002498 871.940042 397.08524 907.959628 352.879384 907.959628zM767.923254 907.959628c-44.205856 0-80.225442-36.019586-80.225442-80.225442 0-44.205856 36.019586-80.123114 80.225442-80.123114 44.205856 0 80.123114 35.917258 80.123114 80.123114C848.148696 871.940042 812.12911 907.959628 767.923254 907.959628zM976.059159 639.654642l0 126.068552c0 16.372539-13.405016 29.777556-29.777556 29.777556l-59.964425 0c-14.223643-51.982812-61.908664-90.458279-118.291596-90.458279-56.48526 0-104.170281 38.373139-118.393924 90.458279L471.17098 795.500749C456.947337 743.415609 409.364645 705.04247 352.879384 705.04247c-56.48526 0-104.170281 38.373139-118.291596 90.458279l-73.47177 0c-16.372539 0-29.777556-13.405016-29.777556-29.777556L131.338463 658.073748l455.565904 0c39.805736 0 72.243829-32.438093 72.243829-72.243829L659.148196 335.227741l99.463176 0c22.0006 0 54.234036 14.530629 68.866993 31.005496l132.208254 148.990107C970.94274 530.470271 976.877786 558.405916 976.059159 639.654642zM819.189767 409.415809c-6.651344-11.460777-21.181973-19.851704-34.484661-19.851704l-48.810633 0c-16.065554 0-29.163585 13.098031-29.163585 29.163585l0 207.931248c0 16.065554 12.995703 29.163585 29.163585 29.163585L862.679324 655.822524c16.065554 0 29.061257-12.995703 29.061257-29.163585l0-74.08574c0-10.539822-3.990806-25.377436-9.311882-34.484661L819.189767 409.415809zM862.576996 626.55661 735.894474 626.55661 735.894474 418.727691l48.810633 0c2.865194 0 7.879285 2.967523 9.311882 5.321075l63.341261 108.570401c2.762866 4.707105 5.321075 14.4283 5.321075 19.851704L862.576996 626.55661z" p-id="884" fill="#2c2c2c"></path></svg>