<?xml version="1.0" standalone="no"?><!DOCTYPE svg PUBLIC "-//W3C//DTD SVG 1.1//EN" "http://www.w3.org/Graphics/SVG/1.1/DTD/svg11.dtd"><svg t="1497852247097" class="icon" style="" viewBox="0 0 1220 1024" version="1.1" xmlns="http://www.w3.org/2000/svg" p-id="1025" xmlns:xlink="http://www.w3.org/1999/xlink" width="152.5" height="128"><defs><style type="text/css"></style></defs><path d="M172.762 648.58c-3.542 10.561-0.548 17.861 10.097 21.352l311.927 100.113c1.243 0.429 2.515 0.696 3.79 0.862 0-13.904 2.383-16.852 6.703-29.315l-309.625-99.401c-10.66-3.476-19.368-4.138-22.894 6.39zM482.172 421.339l-148.48 27.478 50.172 140.867 32.758-56.099 70.947 40.49 32.774-56.147-70.963-40.49 32.792-56.099zM497.947 523.902l-16.387 28.058-70.947-40.506-16.388 28.058-32.18-74.488 81.342-9.699-16.404 28.058 70.963 40.522zM621.929 690.972c-46.829 0-84.785 37.741-84.785 84.289 0 46.531 37.957 84.256 84.785 84.256 46.895 0 84.851-37.724 84.851-84.256 0-46.547-37.957-84.289-84.851-84.289zM621.929 825.646c-28.024 0-50.752-22.578-50.752-50.405 0-27.859 22.728-50.405 50.752-50.405 28.008 0 50.718 22.546 50.718 50.405 0 27.825-22.711 50.405-50.718 50.405zM989.572 315.432c-1.919-10.942-10.014-12.266-21.072-10.379l-217.143 35.804-6.291 20.31-100.559 300.040c12.713 2.301 18.54 4.072 29.581 9.915l100.626-300.19 203.206-37.542c11.057-1.886 13.557-7.035 11.652-17.961zM621.896 758.259c-9.419 0-17.001 7.582-17.001 16.9 0 9.337 7.582 16.917 17.001 16.917s17.016-7.582 17.016-16.917c0-9.319-7.598-16.9-17.016-16.9zM604.879 657.22l118.62-354.004-203.322-67.42-33.867 117.99-33.9-16.853 33.9-117.99-186.37-50.57-135.554 421.407 365.806 112.28 6.556-7.118c14.35-15.56 32.774-26.552 53.318-31.781l14.814-5.942zM520.177 674.071l-321.908-101.138 118.603-370.855 135.536 33.718-33.867 117.99 84.702 33.718 33.884-117.99 152.487 50.57-118.62 320.269c-19.864 6.339-35.671 19.466-50.817 33.718z" p-id="1026"></path></svg>