<?xml version="1.0" standalone="no"?><!DOCTYPE svg PUBLIC "-//W3C//DTD SVG 1.1//EN" "http://www.w3.org/Graphics/SVG/1.1/DTD/svg11.dtd"><svg t="1497852877814" class="icon" style="" viewBox="0 0 1024 1024" version="1.1" xmlns="http://www.w3.org/2000/svg" p-id="1101" xmlns:xlink="http://www.w3.org/1999/xlink" width="128" height="128"><defs><style type="text/css"></style></defs><path d="M624.64 51.2l-51.2-51.2H537.6l61.44 51.2zM844.8 276.48v-5.12l-51.2-51.2v25.6zM552.96 51.2H537.6v276.48h256V220.16L624.64 51.2h-71.68z m35.84 225.28v-189.44l189.44 189.44H588.8z" p-id="1102" fill="#2c2c2c"></path><path d="M128 972.8V51.2h424.96l-51.2-51.2H76.8v1024h409.6v-51.2zM793.6 291.84V512h51.2V322.56l-10.24 10.24z" p-id="1103" fill="#2c2c2c"></path><path d="M599.04 51.2L537.6 0h-35.84l51.2 51.2zM793.6 291.84l40.96 40.96 10.24-10.24v-46.08l-51.2-30.72zM691.2 512c-143.36 0-256 112.64-256 256s112.64 256 256 256 256-112.64 256-256-112.64-256-256-256z m0 460.8c-112.64 0-204.8-92.16-204.8-204.8s92.16-204.8 204.8-204.8 204.8 92.16 204.8 204.8-92.16 204.8-204.8 204.8z" p-id="1104" fill="#2c2c2c"></path><path d="M734.6688 812.4928l-36.2496-36.1984 72.448-72.448 36.1984 36.2496zM697.6512 851.8144l-108.544-108.6464 36.1472-36.1984 108.5952 108.5952zM179.2 716.8h204.8v51.2H179.2zM179.2 409.6h358.4v51.2H179.2zM179.2 563.2h256v51.2H179.2z" p-id="1105" fill="#2c2c2c"></path></svg>