<?xml version="1.0" standalone="no"?><!DOCTYPE svg PUBLIC "-//W3C//DTD SVG 1.1//EN" "http://www.w3.org/Graphics/SVG/1.1/DTD/svg11.dtd"><svg t="1497852917220" class="icon" style="" viewBox="0 0 1024 1024" version="1.1" xmlns="http://www.w3.org/2000/svg" p-id="1256" xmlns:xlink="http://www.w3.org/1999/xlink" width="128" height="128"><defs><style type="text/css"></style></defs><path d="M345.088 286.4h342.336v57.088H345.088V286.4z m0 228.288h171.136v57.024H345.088v-57.024z m0 228.224h57.024V800h-57.024v-57.088z m228.224-684.8H459.2V1.088H345.088v57.024H230.912v114.176h342.4V58.112zM156.736 326.336l39.936 39.936 39.936-39.936 79.936-79.872-40-39.936-79.872 79.872-39.936-39.936L116.8 286.4l39.936 39.936z m39.936 188.352l-39.936-40-39.936 40 39.936 39.936 39.936 39.936 39.936-39.936 79.936-79.936-40-39.936-79.872 79.936z m79.872 148.288l-79.872 79.936-39.936-39.936-39.936 39.936 39.936 39.936 39.936 39.936 39.936-39.936 79.936-79.872-40-40z" fill="" p-id="1257"></path><path d="M716.032 566.016c108.352 0 199.68 91.264 199.68 199.744s-91.328 199.744-199.68 199.744c-108.416 0-199.744-91.328-199.744-199.744s91.264-199.744 199.744-199.744z m0-57.088C573.376 508.928 459.2 623.04 459.2 765.76s114.112 256.832 256.832 256.832c142.656 0 256.768-114.112 256.768-256.832S858.624 508.928 716.032 508.928z" fill="" p-id="1258"></path><path d="M744.512 737.216V623.04h-57.088v171.2h171.2v-57.024H744.512z m0-279.616h57.024V58.112H630.4V115.2h114.112v342.4z m-342.4 456.512h-342.4V115.2h114.112V58.112H2.688V971.2h399.424v-57.088z" fill="" p-id="1259"></path></svg>