<?xml version="1.0" standalone="no"?><!DOCTYPE svg PUBLIC "-//W3C//DTD SVG 1.1//EN" "http://www.w3.org/Graphics/SVG/1.1/DTD/svg11.dtd"><svg t="1497852057433" class="icon" style="" viewBox="0 0 1024 1024" version="1.1" xmlns="http://www.w3.org/2000/svg" p-id="1397" xmlns:xlink="http://www.w3.org/1999/xlink" width="128" height="128"><defs><style type="text/css"></style></defs><path d="M199.155852 367.689267v521.514701c0 25.352411-51.197032 25.255197-51.197032 0V400.22938l-48.468898 34.675754c-20.690228 14.765285-50.300616-28.079522-29.804817-42.745546l398.690328-283.056728c26.614148-19.911492 43.157939-20.144806 71.617108 1.128707l395.306254 281.928021c20.494777 14.569834-5.730515 57.413618-26.420742 42.745546l-48.178279-34.28792v86.779435c0 26.480094-53.453423 26.384927-53.453423 0V364.595812L508.250606 151.954831c-3.497661-2.622734-6.79987-2.622734-10.199293-0.195452L199.155852 367.689267z" p-id="1398"></path><path d="M276.163737 472.497311h70.421886c6.994298 0 12.724813 5.730515 12.724813 12.723789v70.520123c0 6.992251-5.731538 12.723789-12.724813 12.72379H276.163737c-6.992251 0-12.723789-5.731538-12.723789-12.72379v-70.520123c-0.097214-6.895037 5.729491-12.723789 12.723789-12.723789z m167.206186 0h70.421886c6.993275 0 12.723789 5.730515 12.723789 12.723789v70.520123c0 6.992251-5.730515 12.723789-12.723789 12.72379h-70.421886c-6.994298 0-12.724813-5.731538-12.724812-12.72379v-70.520123c-0.097214-6.895037 5.729491-12.723789 12.724812-12.723789zM276.163737 642.384559h70.421886c6.994298 0 12.724813 5.731538 12.724813 12.72379v70.325695c0 7.187703-5.731538 12.919241-12.724813 12.91924H276.163737c-6.992251 0-12.723789-5.731538-12.723789-12.91924v-70.325695c-0.097214-6.992251 5.729491-12.723789 12.723789-12.72379z m0 169.692821h70.421886c6.994298 0 12.724813 5.731538 12.724813 12.91924v70.325695c0 7.187703-5.731538 12.919241-12.724813 12.919241H276.163737c-6.992251 0-12.723789-5.731538-12.723789-12.919241v-70.325695c-0.097214-7.187703 5.729491-12.919241 12.723789-12.91924z m169.596629-169.692821h70.421886c6.993275 0 12.723789 5.731538 12.72379 12.72379v70.325695c0 7.187703-5.730515 12.919241-12.72379 12.91924h-70.421886c-6.994298 0-12.724813-5.731538-12.724812-12.91924v-70.325695c-0.097214-6.992251 5.730515-12.723789 12.724812-12.72379z m0 169.692821h70.421886c6.993275 0 12.723789 5.731538 12.72379 12.91924v70.325695c0 7.187703-5.730515 12.919241-12.72379 12.919241h-70.421886c-6.994298 0-12.724813-5.731538-12.724812-12.919241v-70.325695c-0.097214-7.187703 5.730515-12.919241 12.724812-12.91924z" p-id="1399"></path><path d="M561.732681 873.556593c0 13.06762 13.06762 21.779026 21.779026 21.779025 8.711406 0 13.06762-4.356214 17.423835-13.06762 43.559075-69.694315 99.18907-107.375519 181.951005-103.020328v82.761935c0 13.06762 8.711406 21.779026 21.779026 21.779026 8.711406 0 13.06762-4.356214 17.423834-8.711405l120.94149-134.00911c8.711406-8.711406 17.423835-17.423835 17.423835-30.491455s-4.356214-21.779026-13.06762-30.491455l-120.94149-131.699508c-4.356214-4.356214-8.711406-8.711406-17.423835-8.711405-13.06762 0-26.13524 13.06762-26.13524 26.13524v69.694315c-222.150566 13.068643-216.798674 198.849884-221.153866 238.052745z m36.045961-44.384883c12.549827-66.934458 55.497988-162.218592 206.098985-162.218592h12.549827v-76.144214l102.538351 111.837134c4.183276 4.183276 4.183276 8.366551 4.183276 8.366551l-8.366552 8.366552-99.558483 114.065895v-91.010806h-36.447097c-71.116711 0-134.981251 32.352849-180.998307 86.73748z" p-id="1400"></path></svg>