<?xml version="1.0" standalone="no"?><!DOCTYPE svg PUBLIC "-//W3C//DTD SVG 1.1//EN" "http://www.w3.org/Graphics/SVG/1.1/DTD/svg11.dtd"><svg t="1497853316925" class="icon" style="" viewBox="0 0 1024 1024" version="1.1" xmlns="http://www.w3.org/2000/svg" p-id="1057" xmlns:xlink="http://www.w3.org/1999/xlink" width="128" height="128"><defs><style type="text/css"></style></defs><path d="M813.696 210.304v487.232h-14.272a27.456 27.456 0 1 0 0 54.848h41.728a27.456 27.456 0 0 0 27.392-27.392v-542.08a27.456 27.456 0 0 0-27.392-27.52h-542.08a27.456 27.456 0 0 0-27.52 27.52v45.056a27.456 27.456 0 1 0 54.912 0v-17.664h487.232z" fill="#2c2c2c" p-id="1058"></path><path d="M210.304 813.696h487.232V326.464H210.304v487.232z m-27.456-542.08h542.08c15.168 0 27.52 12.288 27.52 27.392v542.08a27.456 27.456 0 0 1-27.52 27.52h-542.08a27.456 27.456 0 0 1-27.392-27.52v-542.08c0-15.104 12.224-27.392 27.392-27.392z" fill="#2c2c2c" p-id="1059"></path><path d="M299.008 597.504h309.76a27.456 27.456 0 1 0 0-54.848h-309.76a27.456 27.456 0 1 0 0 54.848z" fill="#2c2c2c" p-id="1060"></path><path d="M426.496 415.168v309.76a27.456 27.456 0 1 0 54.848 0v-309.76a27.456 27.456 0 1 0-54.848 0z" fill="#2c2c2c" p-id="1061"></path></svg>