<?xml version="1.0" encoding="utf-8"?>
<!-- Generator: Adobe Illustrator 21.0.0, SVG Export Plug-In . SVG Version: 6.00 Build 0)  -->
<svg version="1.1" id="图层_1" xmlns="http://www.w3.org/2000/svg" xmlns:xlink="http://www.w3.org/1999/xlink" x="0px" y="0px"
	 viewBox="0 0 419 739" style="enable-background:new 0 0 419 739;" xml:space="preserve">
<style type="text/css">
	.st0{fill:none;stroke:#000000;stroke-miterlimit:10;}
</style>
<g>
	<g>
		<g>
			<g>
				<path d="M389.5,555.7c-17.9,0-35.7,0-53.6,0c-39.1,0-78.3,0-117.4,0c-38.7,0-77.4,0-116.1,0c-12.6,0-25.1,0-37.7,0
					c-5.4,0-12.7,1.1-17.8-0.9c-8.4-3.3-7.9-11.1-7.9-18.3c0-8.2,0-16.5,0-24.7c0-30.1,0-60.2,0-90.4c0-40.5,0-81,0-121.5
					c0-41.4,0-82.7,0-124.1c0-33.1,0-66.3,0-99.4c0-15.4-0.2-30.7,0-46.1c0.1-7.3,5.1-12.9,12.5-13.2c1.4-0.1,2.7,0,4.1,0
					c9.4,0,18.8,0,28.2,0c36,0,72,0,107.9,0c40.7,0,81.5,0,122.2,0c24.3,0,48.5,0,72.8,0c8.4,0,15.3,4.3,15.4,13.6
					c0.1,5.4,0,10.8,0,16.2c0,26.2,0,52.4,0,78.6c0,38.9,0,77.7,0,116.6c0,42,0,83.9,0,125.9c0,36,0,72.1,0,108.1
					c0,20.5,0,41,0,61.5c0,1.6,0,3.2,0,4.8C401.9,549.8,396.9,555.4,389.5,555.7c-6.4,0.2-6.4,10.2,0,10c12.6-0.5,22.1-10,22.5-22.6
					c0-1.2,0-2.4,0-3.5c0-7.1,0-14.3,0-21.4c0-29.2,0-58.5,0-87.7c0-40.7,0-81.4,0-122c0-42.5,0-85,0-127.5c0-34.1,0-68.2,0-102.3
					c0-16,0.2-32.1,0-48.2c-0.2-13.9-10.7-23.2-24.2-23.2c-8,0-16.1,0-24.1,0c-35.2,0-70.4,0-105.6,0c-42,0-83.9,0-125.9,0
					c-25.7,0-51.4,0-77,0c-1.7,0-3.4-0.1-5.1,0.1C38.1,8.1,29.3,17.9,29,29.8c-0.1,4.2,0,8.3,0,12.5c0,24.9,0,49.8,0,74.7
					c0,38.8,0,77.6,0,116.4c0,42.8,0,85.7,0,128.5c0,37.1,0,74.1,0,111.2c0,21.4,0,42.9,0,64.4c0,9.3,1.1,18.2,9.5,24.2
					c7.1,5,15.6,4.1,23.8,4.1c30.3,0,60.7,0,91,0c42.3,0,84.6,0,126.9,0c31.7,0,63.3,0,95,0c4.8,0,9.5,0,14.3,0
					C395.9,565.7,395.9,555.7,389.5,555.7z"/>
			</g>
		</g>
		<g>
			<g>
				<path d="M401.6,696.8c-12,0-24,0-35.9,0c-28.8,0-57.5,0-86.3,0c-34.8,0-69.6,0-104.4,0c-30.1,0-60.2,0-90.3,0
					c-9.9,0-19.8,0-29.7,0c-4.4,0-9.7-0.8-14.1,0c-0.2,0-0.4,0-0.6,0c1.7,1.7,3.3,3.3,5,5c0-41,0-81.9,0-122.9c0-5.8,0-11.6,0-17.4
					c-1.7,1.7-3.3,3.3-5,5c12,0,24,0,35.9,0c28.8,0,57.5,0,86.3,0c34.8,0,69.6,0,104.4,0c30.1,0,60.2,0,90.3,0c9.9,0,19.8,0,29.7,0
					c4.4,0,9.7,0.8,14.1,0c0.2,0,0.4,0,0.6,0c-1.7-1.7-3.3-3.3-5-5c0,41,0,81.9,0,122.9c0,5.8,0,11.6,0,17.4c0,6.4,10,6.4,10,0
					c0-41,0-81.9,0-122.9c0-5.8,0-11.6,0-17.4c0-2.7-2.3-5-5-5c-12,0-24,0-35.9,0c-28.8,0-57.5,0-86.3,0c-34.8,0-69.6,0-104.4,0
					c-30.1,0-60.2,0-90.3,0c-14.5,0-29.4-1.1-43.8,0c-0.2,0-0.4,0-0.6,0c-2.7,0-5,2.3-5,5c0,41,0,81.9,0,122.9c0,5.8,0,11.6,0,17.4
					c0,2.7,2.3,5,5,5c12,0,24,0,35.9,0c28.8,0,57.5,0,86.3,0c34.8,0,69.6,0,104.4,0c30.1,0,60.2,0,90.3,0c14.5,0,29.4,1.1,43.8,0
					c0.2,0,0.4,0,0.6,0C408,706.8,408.1,696.8,401.6,696.8z"/>
			</g>
		</g>
		<g>
			<g>
				<g>
					<path d="M384.5,687.7c-19.9,0-39.7,0-59.6,0c-31.9,0-63.7,0-95.6,0c-7.3,0-14.6,0-21.9,0c0.8,0.8,1.7,1.7,2.5,2.5
						c0-34.4,0-68.7,0-103.1c0-4.9,0-9.8,0-14.6c-0.8,0.8-1.7,1.7-2.5,2.5c19.9,0,39.7,0,59.6,0c31.9,0,63.7,0,95.6,0
						c7.3,0,14.6,0,21.9,0c-0.8-0.8-1.7-1.7-2.5-2.5c0,34.4,0,68.7,0,103.1c0,4.9,0,9.8,0,14.6c0,3.2,5,3.2,5,0
						c0-34.4,0-68.7,0-103.1c0-4.9,0-9.8,0-14.6c0-1.4-1.1-2.5-2.5-2.5c-19.9,0-39.7,0-59.6,0c-31.9,0-63.7,0-95.6,0
						c-7.3,0-14.6,0-21.9,0c-1.4,0-2.5,1.1-2.5,2.5c0,34.4,0,68.7,0,103.1c0,4.9,0,9.8,0,14.6c0,1.4,1.1,2.5,2.5,2.5
						c19.9,0,39.7,0,59.6,0c31.9,0,63.7,0,95.6,0c7.3,0,14.6,0,21.9,0C387.7,692.7,387.8,687.7,384.5,687.7z"/>
				</g>
			</g>
			<g>
				<rect x="215.5" y="596.9" class="st0" width="7.2" height="7.2"/>
				<rect x="344.4" y="596.9" class="st0" width="7.2" height="7.2"/>
				<rect x="357.3" y="596.9" class="st0" width="7.2" height="7.2"/>
				<rect x="370.1" y="596.9" class="st0" width="7.2" height="7.2"/>
				<rect x="280" y="596.9" class="st0" width="7.2" height="7.2"/>
				<rect x="267.1" y="596.9" class="st0" width="7.2" height="7.2"/>
				<rect x="254.2" y="596.9" class="st0" width="7.2" height="7.2"/>
				<rect x="241.3" y="596.9" class="st0" width="7.2" height="7.2"/>
				<rect x="292.8" y="596.9" class="st0" width="7.2" height="7.2"/>
				<rect x="331.5" y="596.9" class="st0" width="7.2" height="7.2"/>
				<rect x="318.6" y="596.9" class="st0" width="7.2" height="7.2"/>
				<rect x="305.7" y="596.9" class="st0" width="7.2" height="7.2"/>
				<rect x="228.4" y="596.9" class="st0" width="7.2" height="7.2"/>
			</g>
			<g>
				<rect x="215.5" y="584.1" class="st0" width="7.2" height="7.2"/>
				<rect x="344.4" y="584.1" class="st0" width="7.2" height="7.2"/>
				<rect x="357.3" y="584.1" class="st0" width="7.2" height="7.2"/>
				<rect x="370.1" y="584.1" class="st0" width="7.2" height="7.2"/>
				<rect x="280" y="584.1" class="st0" width="7.2" height="7.2"/>
				<rect x="267.1" y="584.1" class="st0" width="7.2" height="7.2"/>
				<rect x="254.2" y="584.1" class="st0" width="7.2" height="7.2"/>
				<rect x="241.3" y="584.1" class="st0" width="7.2" height="7.2"/>
				<rect x="292.8" y="584.1" class="st0" width="7.2" height="7.2"/>
				<rect x="331.5" y="584.1" class="st0" width="7.2" height="7.2"/>
				<rect x="318.6" y="584.1" class="st0" width="7.2" height="7.2"/>
				<rect x="305.7" y="584.1" class="st0" width="7.2" height="7.2"/>
				<rect x="228.4" y="584.1" class="st0" width="7.2" height="7.2"/>
			</g>
			<g>
				<rect x="215.5" y="609.8" class="st0" width="7.2" height="7.2"/>
				<rect x="344.4" y="609.8" class="st0" width="7.2" height="7.2"/>
				<rect x="357.3" y="609.8" class="st0" width="7.2" height="7.2"/>
				<rect x="370.1" y="609.8" class="st0" width="7.2" height="7.2"/>
				<rect x="280" y="609.8" class="st0" width="7.2" height="7.2"/>
				<rect x="267.1" y="609.8" class="st0" width="7.2" height="7.2"/>
				<rect x="254.2" y="609.8" class="st0" width="7.2" height="7.2"/>
				<rect x="241.3" y="609.8" class="st0" width="7.2" height="7.2"/>
				<rect x="292.8" y="609.8" class="st0" width="7.2" height="7.2"/>
				<rect x="331.5" y="609.8" class="st0" width="7.2" height="7.2"/>
				<rect x="318.6" y="609.8" class="st0" width="7.2" height="7.2"/>
				<rect x="305.7" y="609.8" class="st0" width="7.2" height="7.2"/>
				<rect x="228.4" y="609.8" class="st0" width="7.2" height="7.2"/>
			</g>
			<g>
				<rect x="215.5" y="622.6" class="st0" width="7.2" height="7.2"/>
				<rect x="344.4" y="622.6" class="st0" width="7.2" height="7.2"/>
				<rect x="357.3" y="622.6" class="st0" width="7.2" height="7.2"/>
				<rect x="370.1" y="622.6" class="st0" width="7.2" height="7.2"/>
				<rect x="280" y="622.6" class="st0" width="7.2" height="7.2"/>
				<rect x="267.1" y="622.6" class="st0" width="7.2" height="7.2"/>
				<rect x="254.2" y="622.6" class="st0" width="7.2" height="7.2"/>
				<rect x="241.3" y="622.6" class="st0" width="7.2" height="7.2"/>
				<rect x="292.8" y="622.6" class="st0" width="7.2" height="7.2"/>
				<rect x="331.5" y="622.6" class="st0" width="7.2" height="7.2"/>
				<rect x="318.6" y="622.6" class="st0" width="7.2" height="7.2"/>
				<rect x="305.7" y="622.6" class="st0" width="7.2" height="7.2"/>
				<rect x="228.4" y="622.6" class="st0" width="7.2" height="7.2"/>
			</g>
			<g>
				<rect x="215.5" y="635.5" class="st0" width="7.2" height="7.2"/>
				<rect x="344.4" y="635.5" class="st0" width="7.2" height="7.2"/>
				<rect x="357.3" y="635.5" class="st0" width="7.2" height="7.2"/>
				<rect x="370.1" y="635.5" class="st0" width="7.2" height="7.2"/>
				<rect x="280" y="635.5" class="st0" width="7.2" height="7.2"/>
				<rect x="267.1" y="635.5" class="st0" width="7.2" height="7.2"/>
				<rect x="254.2" y="635.5" class="st0" width="7.2" height="7.2"/>
				<rect x="241.3" y="635.5" class="st0" width="7.2" height="7.2"/>
				<rect x="292.8" y="635.5" class="st0" width="7.2" height="7.2"/>
				<rect x="331.5" y="635.5" class="st0" width="7.2" height="7.2"/>
				<rect x="318.6" y="635.5" class="st0" width="7.2" height="7.2"/>
				<rect x="305.7" y="635.5" class="st0" width="7.2" height="7.2"/>
				<rect x="228.4" y="635.5" class="st0" width="7.2" height="7.2"/>
			</g>
			<g>
				<rect x="215.5" y="648.3" class="st0" width="7.2" height="7.2"/>
				<rect x="344.4" y="648.3" class="st0" width="7.2" height="7.2"/>
				<rect x="357.3" y="648.3" class="st0" width="7.2" height="7.2"/>
				<rect x="370.1" y="648.3" class="st0" width="7.2" height="7.2"/>
				<rect x="280" y="648.3" class="st0" width="7.2" height="7.2"/>
				<rect x="267.1" y="648.3" class="st0" width="7.2" height="7.2"/>
				<rect x="254.2" y="648.3" class="st0" width="7.2" height="7.2"/>
				<rect x="241.3" y="648.3" class="st0" width="7.2" height="7.2"/>
				<rect x="292.8" y="648.3" class="st0" width="7.2" height="7.2"/>
				<rect x="331.5" y="648.3" class="st0" width="7.2" height="7.2"/>
				<rect x="318.6" y="648.3" class="st0" width="7.2" height="7.2"/>
				<rect x="305.7" y="648.3" class="st0" width="7.2" height="7.2"/>
				<rect x="228.4" y="648.3" class="st0" width="7.2" height="7.2"/>
			</g>
			<g>
				<rect x="215.5" y="661.1" class="st0" width="7.2" height="7.2"/>
				<rect x="344.4" y="661.1" class="st0" width="7.2" height="7.2"/>
				<rect x="357.3" y="661.1" class="st0" width="7.2" height="7.2"/>
				<rect x="370.1" y="661.1" class="st0" width="7.2" height="7.2"/>
				<rect x="280" y="661.1" class="st0" width="7.2" height="7.2"/>
				<rect x="267.1" y="661.1" class="st0" width="7.2" height="7.2"/>
				<rect x="254.2" y="661.1" class="st0" width="7.2" height="7.2"/>
				<rect x="241.3" y="661.1" class="st0" width="7.2" height="7.2"/>
				<rect x="292.8" y="661.1" class="st0" width="7.2" height="7.2"/>
				<rect x="331.5" y="661.1" class="st0" width="7.2" height="7.2"/>
				<rect x="318.6" y="661.1" class="st0" width="7.2" height="7.2"/>
				<rect x="305.7" y="661.1" class="st0" width="7.2" height="7.2"/>
				<rect x="228.4" y="661.1" class="st0" width="7.2" height="7.2"/>
			</g>
			<g>
				<rect x="215.5" y="674" class="st0" width="7.2" height="7.2"/>
				<rect x="344.4" y="674" class="st0" width="7.2" height="7.2"/>
				<rect x="357.3" y="674" class="st0" width="7.2" height="7.2"/>
				<rect x="370.1" y="674" class="st0" width="7.2" height="7.2"/>
				<rect x="280" y="674" class="st0" width="7.2" height="7.2"/>
				<rect x="267.1" y="674" class="st0" width="7.2" height="7.2"/>
				<rect x="254.2" y="674" class="st0" width="7.2" height="7.2"/>
				<rect x="241.3" y="674" class="st0" width="7.2" height="7.2"/>
				<rect x="292.8" y="674" class="st0" width="7.2" height="7.2"/>
				<rect x="331.5" y="674" class="st0" width="7.2" height="7.2"/>
				<rect x="318.6" y="674" class="st0" width="7.2" height="7.2"/>
				<rect x="305.7" y="674" class="st0" width="7.2" height="7.2"/>
				<rect x="228.4" y="674" class="st0" width="7.2" height="7.2"/>
			</g>
		</g>
		<g>
			<g>
				<path d="M175.5,267.4c-33.6,0-67.2,0-100.8,0c-4.7,0-9.5,0-14.2,0c0.8,0.8,1.7,1.7,2.5,2.5c0-29.1,0-58.1,0-87.2
					c0-46.3,0-92.6,0-138.9c0-10.6,0-21.2,0-31.9c-0.8,0.8-1.7,1.7-2.5,2.5c33.6,0,67.2,0,100.8,0c4.7,0,9.5,0,14.2,0
					c-0.8-0.8-1.7-1.7-2.5-2.5c0,29.1,0,58.1,0,87.2c0,46.3,0,92.6,0,138.9c0,10.6,0,21.2,0,31.9c0,3.2,5,3.2,5,0
					c0-29.1,0-58.1,0-87.2c0-46.3,0-92.6,0-138.9c0-10.6,0-21.2,0-31.9c0-1.4-1.1-2.5-2.5-2.5c-33.6,0-67.2,0-100.8,0
					c-4.7,0-9.5,0-14.2,0c-1.4,0-2.5,1.1-2.5,2.5c0,29.1,0,58.1,0,87.2c0,46.3,0,92.6,0,138.9c0,10.6,0,21.2,0,31.9
					c0,1.4,1.1,2.5,2.5,2.5c33.6,0,67.2,0,100.8,0c4.7,0,9.5,0,14.2,0C178.8,272.4,178.8,267.4,175.5,267.4z"/>
			</g>
		</g>
		<g>
			<g>
				<path d="M156.2,166.3c-25.8,0-51.5,0-77.3,0c0.8,0.8,1.7,1.7,2.5,2.5c0-13.8,0-27.6,0-41.3c-0.8,0.8-1.7,1.7-2.5,2.5
					c25.8,0,51.5,0,77.3,0c-0.8-0.8-1.7-1.7-2.5-2.5c0,13.8,0,27.6,0,41.3c0,3.2,5,3.2,5,0c0-13.8,0-27.6,0-41.3
					c0-1.4-1.1-2.5-2.5-2.5c-25.8,0-51.5,0-77.3,0c-1.4,0-2.5,1.1-2.5,2.5c0,13.8,0,27.6,0,41.3c0,1.4,1.1,2.5,2.5,2.5
					c25.8,0,51.5,0,77.3,0C159.4,171.3,159.4,166.3,156.2,166.3z"/>
			</g>
		</g>
		<g>
			<g>
				<path d="M156.2,189.7c-25.8,0-51.5,0-77.3,0c0.8,0.8,1.7,1.7,2.5,2.5c0-5.4,0-10.8,0-16.2c-0.8,0.8-1.7,1.7-2.5,2.5
					c25.8,0,51.5,0,77.3,0c-0.8-0.8-1.7-1.7-2.5-2.5c0,5.4,0,10.8,0,16.2c0,3.2,5,3.2,5,0c0-5.4,0-10.8,0-16.2
					c0-1.4-1.1-2.5-2.5-2.5c-25.8,0-51.5,0-77.3,0c-1.4,0-2.5,1.1-2.5,2.5c0,5.4,0,10.8,0,16.2c0,1.4,1.1,2.5,2.5,2.5
					c25.8,0,51.5,0,77.3,0C159.4,194.7,159.4,189.7,156.2,189.7z"/>
			</g>
		</g>
		<g>
			<g>
				<path d="M156.2,267c-25.8,0-51.5,0-77.3,0c0.8,0.8,1.7,1.7,2.5,2.5c0-23.4,0-46.7,0-70.1c-0.8,0.8-1.7,1.7-2.5,2.5
					c25.8,0,51.5,0,77.3,0c-0.8-0.8-1.7-1.7-2.5-2.5c0,23.4,0,46.7,0,70.1c0,3.2,5,3.2,5,0c0-23.4,0-46.7,0-70.1
					c0-1.4-1.1-2.5-2.5-2.5c-25.8,0-51.5,0-77.3,0c-1.4,0-2.5,1.1-2.5,2.5c0,23.4,0,46.7,0,70.1c0,1.4,1.1,2.5,2.5,2.5
					c25.8,0,51.5,0,77.3,0C159.4,272,159.4,267,156.2,267z"/>
			</g>
		</g>
		<g>
			<g>
				<path d="M144.8,234.4c-0.4,14.4-11.7,26.3-26.4,26.4c-14.4,0-26.4-12-26.4-26.4c0-14.4,12-26.4,26.4-26.4
					C133.1,208.1,144.5,220.1,144.8,234.4c0,1.9,3,1.9,3,0c-0.3-12.2-7.5-23.1-19-27.5c-11.8-4.4-25.4-0.7-33.2,9.1
					c-16.6,20.8,2,51.8,28.1,47.2c14.1-2.5,23.8-14.9,24.2-28.9C147.9,232.5,144.9,232.5,144.8,234.4z"/>
			</g>
		</g>
		<g>
			<g>
				<path d="M125.1,234.4c-0.5,9.6-15,9.7-15,0C110.1,224.8,124.5,224.8,125.1,234.4c0.1,1.9,3.1,1.9,3,0
					c-0.3-5.7-4.6-10.5-10.5-10.5c-5.7,0-10.5,4.8-10.5,10.5c0,5.5,4.5,10.2,10,10.5c6.1,0.3,10.7-4.6,11-10.5
					C128.2,232.5,125.2,232.5,125.1,234.4z"/>
			</g>
		</g>
		<g>
			<g>
				<path d="M107.5,211.2c4.8,5.7,9.6,11.4,14.4,17.1c1.2,1.5,3.4-0.7,2.1-2.1c-4.8-5.7-9.6-11.4-14.4-17.1
					C108.4,207.6,106.3,209.8,107.5,211.2L107.5,211.2z"/>
			</g>
		</g>
		<g>
			<g>
				<path d="M34,311.9c-6,0-12,0-18,0c0.8,0.8,1.7,1.7,2.5,2.5c0-18.9,0-37.8,0-56.6c-0.8,0.8-1.7,1.7-2.5,2.5c6,0,12,0,18,0
					c-0.8-0.8-1.7-1.7-2.5-2.5c0,18.9,0,37.8,0,56.6c0,3.2,5,3.2,5,0c0-18.9,0-37.8,0-56.6c0-1.4-1.1-2.5-2.5-2.5c-6,0-12,0-18,0
					c-1.4,0-2.5,1.1-2.5,2.5c0,18.9,0,37.8,0,56.6c0,1.4,1.1,2.5,2.5,2.5c6,0,12,0,18,0C37.2,316.9,37.2,311.9,34,311.9z"/>
			</g>
		</g>
		<g>
			<g>
				<path d="M6.5,217.4c1,29.9,2.1,59.8,3.1,89.7c0.1,4.3,0.3,8.5,0.4,12.8c0.2,6.4,10.2,6.4,10,0c-1-29.9-2.1-59.8-3.1-89.7
					c-0.1-4.3-0.3-8.5-0.4-12.8C16.3,210.9,6.3,210.9,6.5,217.4L6.5,217.4z"/>
			</g>
		</g>
	</g>
	<g>
		<g>
			<g>
				<path d="M376.7,720.3c0.4,6.9,5.5,12.7,12.7,12.7c6.9,0,12.8-5.8,12.7-12.7c0-6.7-5.4-12.4-12.1-12.7
					C382.6,707.2,377.1,713.1,376.7,720.3c-0.1,1.9,2.9,1.9,3,0c0.7-12.5,19.5-12.6,19.5,0c0,12.6-18.8,12.5-19.5,0
					C379.6,718.3,376.6,718.3,376.7,720.3z"/>
			</g>
		</g>
		<g>
			<g>
				<path d="M394.6,723.6c4.3-3.6,3.5-12.3,3.1-17.2c-0.1-0.8-0.6-1.5-1.5-1.5c-14.4,0-28.8,0-43.1,0c-1.6,0-1.9,2-0.8,2.8
					c5.8,4.3,12,8.2,18.4,11.5c6.3,3.3,16.5,8.8,23.5,4.7c1.7-1,0.2-3.6-1.5-2.6c-6.8,4-18.4-3.4-24.2-6.7c-5.1-2.9-10-6-14.8-9.5
					c-0.3,0.9-0.5,1.9-0.8,2.8c14.4,0,28.8,0,43.1,0c-0.5-0.5-1-1-1.5-1.5c0.3,4.1,1.2,12.2-2.3,15.1
					C391,722.7,393.1,724.8,394.6,723.6z"/>
			</g>
		</g>
		<circle class="st0" cx="389.9" cy="719.8" r="0.9"/>
	</g>
	<g>
		<g>
			<g>
				<path d="M61.2,720.3c-0.7,12.5-19.5,12.6-19.5,0C41.8,707.7,60.6,707.8,61.2,720.3c0.1,1.9,3.1,1.9,3,0
					c-0.4-6.9-5.5-12.7-12.7-12.7c-6.9,0-12.8,5.8-12.7,12.7c0,6.7,5.4,12.4,12.1,12.7c7.4,0.4,13-5.5,13.3-12.7
					C64.3,718.3,61.3,718.3,61.2,720.3z"/>
			</g>
		</g>
		<g>
			<g>
				<path d="M48.5,721.5c-3.5-2.9-2.6-11-2.3-15.1c-0.5,0.5-1,1-1.5,1.5c14.4,0,28.8,0,43.1,0c-0.3-0.9-0.5-1.9-0.8-2.8
					c-4.7,3.5-9.7,6.6-14.8,9.5c-5.8,3.3-17.4,10.7-24.2,6.7c-1.7-1-3.2,1.6-1.5,2.6c7,4.2,17.3-1.4,23.5-4.7
					c6.4-3.3,12.6-7.2,18.4-11.5c1.1-0.8,0.8-2.8-0.8-2.8c-14.4,0-28.8,0-43.1,0c-0.9,0-1.4,0.7-1.5,1.5c-0.4,5-1.1,13.6,3.1,17.2
					C47.9,724.8,50,722.7,48.5,721.5z"/>
			</g>
		</g>
		<circle class="st0" cx="51" cy="719.8" r="0.9"/>
	</g>
</g>
</svg>
