<?xml version="1.0" encoding="utf-8"?>
<!-- Generator: Adobe Illustrator 21.0.0, SVG Export Plug-In . SVG Version: 6.00 Build 0)  -->
<svg version="1.1" id="图层_1" xmlns="http://www.w3.org/2000/svg" xmlns:xlink="http://www.w3.org/1999/xlink" x="0px" y="0px"
	 viewBox="0 0 425 638" style="enable-background:new 0 0 425 638;" xml:space="preserve">
<style type="text/css">
	.st0{fill:none;stroke:#000000;stroke-miterlimit:10;}
</style>
<g>
	<g>
		<g>
			<g>
				<g>
					<path d="M415,576.1c-13.4,0-26.7,0-40.1,0c-32.1,0-64.2,0-96.2,0c-38.6,0-77.3,0-115.9,0c-33.6,0-67.1,0-100.7,0
						c-11.1,0-22.1,0-33.2,0c-5,0-10.8-0.8-15.7,0c-0.2,0-0.5,0-0.7,0c1.7,1.7,3.3,3.3,5,5c0-13.4,0-26.7,0-40.1
						c0-32.1,0-64.2,0-96.2c0-38.6,0-77.3,0-115.9c0-33.6,0-67.1,0-100.7c0-11.1,0-22.1,0-33.2c0-5,0.8-10.8,0-15.7
						c0-0.2,0-0.5,0-0.7c-1.7,1.7-3.3,3.3-5,5c13.4,0,26.7,0,40.1,0c32.1,0,64.2,0,96.2,0c38.6,0,77.3,0,115.9,0
						c33.6,0,67.1,0,100.7,0c11.1,0,22.1,0,33.2,0c5,0,10.8,0.8,15.7,0c0.2,0,0.5,0,0.7,0c-1.7-1.7-3.3-3.3-5-5
						c0,13.4,0,26.7,0,40.1c0,32.1,0,64.2,0,96.2c0,38.6,0,77.3,0,115.9c0,33.6,0,67.1,0,100.7c0,16.3-0.7,32.7,0,48.9
						c0,0.2,0,0.5,0,0.7c0,6.4,10,6.4,10,0c0-13.4,0-26.7,0-40.1c0-32.1,0-64.2,0-96.2c0-38.6,0-77.3,0-115.9c0-33.6,0-67.1,0-100.7
						c0-16.3,0.7-32.7,0-48.9c0-0.2,0-0.5,0-0.7c0-2.7-2.3-5-5-5c-13.4,0-26.7,0-40.1,0c-32.1,0-64.2,0-96.2,0
						c-38.6,0-77.3,0-115.9,0c-33.6,0-67.1,0-100.7,0c-16.3,0-32.7-0.7-48.9,0c-0.2,0-0.5,0-0.7,0c-2.7,0-5,2.3-5,5
						c0,13.4,0,26.7,0,40.1c0,32.1,0,64.2,0,96.2c0,38.6,0,77.3,0,115.9c0,33.6,0,67.1,0,100.7c0,16.3-0.7,32.7,0,48.9
						c0,0.2,0,0.5,0,0.7c0,2.7,2.3,5,5,5c13.4,0,26.7,0,40.1,0c32.1,0,64.2,0,96.2,0c38.6,0,77.3,0,115.9,0c33.6,0,67.1,0,100.7,0
						c16.3,0,32.7,0.7,48.9,0c0.2,0,0.5,0,0.7,0C421.4,586.1,421.4,576.1,415,576.1z"/>
				</g>
			</g>
			<g>
				<g>
					<path d="M400.5,598.8c-12.4,0-24.7,0-37.1,0c-29.7,0-59.4,0-89.2,0c-36,0-71.9,0-107.9,0c-31.1,0-62.2,0-93.3,0
						c-10.2,0-20.4,0-30.6,0c-4.6,0-10.1-0.8-14.7,0c-0.2,0-0.4,0-0.6,0c1.7,1.7,3.3,3.3,5,5c0-7.5,0-15.1,0-22.6
						c-1.7,1.7-3.3,3.3-5,5c12.4,0,24.7,0,37.1,0c29.7,0,59.4,0,89.2,0c36,0,71.9,0,107.9,0c31.1,0,62.2,0,93.3,0
						c10.2,0,20.4,0,30.6,0c4.6,0,10.1,0.8,14.7,0c0.2,0,0.4,0,0.6,0c-1.7-1.7-3.3-3.3-5-5c0,7.5,0,15.1,0,22.6c0,6.4,10,6.4,10,0
						c0-7.5,0-15.1,0-22.6c0-2.7-2.3-5-5-5c-12.4,0-24.7,0-37.1,0c-29.7,0-59.4,0-89.2,0c-36,0-71.9,0-107.9,0
						c-31.1,0-62.2,0-93.3,0c-15,0-30.4-1.1-45.3,0c-0.2,0-0.4,0-0.6,0c-2.7,0-5,2.3-5,5c0,7.5,0,15.1,0,22.6c0,2.7,2.3,5,5,5
						c12.4,0,24.7,0,37.1,0c29.7,0,59.4,0,89.2,0c36,0,71.9,0,107.9,0c31.1,0,62.2,0,93.3,0c15,0,30.4,1.1,45.3,0c0.2,0,0.4,0,0.6,0
						C406.9,608.8,406.9,598.8,400.5,598.8z"/>
				</g>
			</g>
			<g>
				<g>
					<path d="M120.8,128.2c-29.2,3.5-60.1,8.3-86.5,22.2c-10.1,5.3-21.1,13-25.5,24c-0.7,1.8-1.4,3.8-1.4,5.8c0,2.7,2.3,5,5,5
						c13.4,0,26.7,0,40.1,0c32.1,0,64.2,0,96.2,0c38.6,0,77.3,0,115.9,0c33.6,0,67.1,0,100.7,0c16.3,0,32.7,0.7,48.9,0
						c0.2,0,0.5,0,0.7,0c2.7,0,5-2.3,5-5c0-5.9-4.1-11.6-7.8-15.8c-12-13.3-30.8-20.2-47.5-25.1c-19.4-5.7-39.5-8.9-59.6-11.3
						c-6.4-0.7-6.3,9.3,0,10c27.6,3.2,57.1,7.8,82.1,20.6c9.4,4.8,18.2,10.8,22.2,19.5c-0.7-1.5,0.3,1.3,0.6,2.1c0.4,1.3,0-1.4,0,0
						c1.7-1.7,3.3-3.3,5-5c-13.4,0-26.7,0-40.1,0c-32.1,0-64.2,0-96.2,0c-38.6,0-77.3,0-115.9,0c-33.6,0-67.1,0-100.7,0
						c-11.1,0-22.1,0-33.2,0c-5,0-10.8-0.8-15.7,0c-0.2,0-0.5,0-0.7,0c1.7,1.7,3.3,3.3,5,5c0-1.2-0.2,0.6-0.1,0.4
						c0.3-0.7,0.4-1.7,0.7-2.5c0.5-1.6-0.4,0.6,0.3-0.8c0.4-0.7,0.7-1.4,1.1-2c1.5-2.4,1.4-2.2,3.2-4.2
						c10.7-11.7,27.6-17.8,42.7-22.3c18.1-5.3,36.8-8.5,55.4-10.7C127.1,137.4,127.2,127.4,120.8,128.2L120.8,128.2z"/>
				</g>
			</g>
			<g>
				<g>
					<path d="M214.6,152.6c-18.4,0-37-0.8-55-4.8c-9-2-18.2-4.7-25.9-9.9c-1.8-1.2-3.6-2.7-5.5-4.9c-1-1.1,0.3,0.6-0.4-0.5
						c-0.2-0.3-0.4-0.6-0.6-1c-0.3-0.5-1.4-3-0.7-1.2c-0.4-1-0.6-3.7-0.6-1.4c0-1,0-1.9,0-2.9c0-10.5,0-20.9,0-31.4
						c-1.7,1.7-3.3,3.3-5,5c20.7,0,41.5,0,62.2,0c33.1,0,66.1,0,99.2,0c7.6,0,15.2,0,22.9,0c-1.7-1.7-3.3-3.3-5-5
						c0,9.2,0,18.5,0,27.7c0,2.1,0,4.2,0,6.3c0,1,0.3-1.4,0.1-0.6c-0.1,0.4-0.2,0.9-0.3,1.3c-0.4,1.1-0.5,1.2-0.2,0.6
						c-0.4,0.8-0.9,1.6-1.3,2.4c-0.2,0.3-1,1.4-0.2,0.3c-0.3,0.4-0.7,0.9-1.1,1.3c-0.9,1-1.9,1.9-2.9,2.8c-5.3,4.5-14.3,7.9-21.8,10
						C253.6,151.7,233.9,152.6,214.6,152.6c-6.4,0-6.4,10,0,10c18.7,0,37.7-1,56-5.3c9.6-2.2,19.6-5.5,27.7-11.4
						c6.5-4.7,11.7-11,11.8-19.2c0-10.7,0-21.5,0-32.2c0-2.7-2.3-5-5-5c-20.7,0-41.5,0-62.2,0c-33.1,0-66.1,0-99.2,0
						c-7.6,0-15.2,0-22.9,0c-2.7,0-5,2.3-5,5c0,10,0,19.9,0,29.9c0,2.8-0.1,5.4,0.8,8.1c4.8,14,22.6,20.3,35.4,23.7
						c20.3,5.3,41.7,6.3,62.6,6.4C221,162.6,221,152.6,214.6,152.6z"/>
				</g>
			</g>
			<g>
				<g>
					<path d="M112.7,99.6c23.7,0,47.5,0,71.2,0c37.6,0,75.3,0,112.9,0c8.7,0,17.3,0,26,0c6.4,0,6.4-10,0-10c-23.7,0-47.5,0-71.2,0
						c-37.6,0-75.3,0-112.9,0c-8.7,0-17.3,0-26,0C106.3,89.6,106.3,99.6,112.7,99.6L112.7,99.6z"/>
				</g>
			</g>
			<g>
				<g>
					<path d="M79.7,632c4.7-44.2,9.4-88.3,14.2-132.5c0.7-6.2,1.3-12.4,2-18.6c-0.8,0.8-1.7,1.7-2.5,2.5c27.3,0,54.6,0,81.9,0
						c43.5,0,87,0,130.6,0c10,0,20,0,30,0c-0.8-0.8-1.7-1.7-2.5-2.5c4.7,44.2,9.4,88.3,14.2,132.5c0.7,6.2,1.3,12.4,2,18.6
						c0.3,3.2,5.3,3.2,5,0c-4.7-44.2-9.4-88.3-14.2-132.5c-0.7-6.2-1.3-12.4-2-18.6c-0.1-1.3-1-2.5-2.5-2.5c-27.3,0-54.6,0-81.9,0
						c-43.5,0-87,0-130.6,0c-10,0-20,0-30,0c-1.5,0-2.4,1.2-2.5,2.5c-4.7,44.2-9.4,88.3-14.2,132.5c-0.7,6.2-1.3,12.4-2,18.6
						C74.3,635.2,79.3,635.2,79.7,632L79.7,632z"/>
				</g>
			</g>
			<g>
				<g>
					<path d="M85.2,533.5c29.2,0,58.3,0,87.5,0c46.4,0,92.9,0,139.3,0c10.6,0,21.2,0,31.8,0c3.2,0,3.2-5,0-5c-29.2,0-58.3,0-87.5,0
						c-46.4,0-92.9,0-139.3,0c-10.6,0-21.2,0-31.8,0C82,528.5,82,533.5,85.2,533.5L85.2,533.5z"/>
				</g>
			</g>
			<g>
				<g>
					<path d="M248.5,92.1c-23.7,0-47.4,0-71.1,0c0.8,0.8,1.7,1.7,2.5,2.5c0-5.9,0-11.9,0-17.8c-0.8,0.8-1.7,1.7-2.5,2.5
						c23.7,0,47.4,0,71.1,0c-0.8-0.8-1.7-1.7-2.5-2.5c0,5.9,0,11.9,0,17.8c0,3.2,5,3.2,5,0c0-5.9,0-11.9,0-17.8
						c0-1.4-1.1-2.5-2.5-2.5c-23.7,0-47.4,0-71.1,0c-1.4,0-2.5,1.1-2.5,2.5c0,5.9,0,11.9,0,17.8c0,1.4,1.1,2.5,2.5,2.5
						c23.7,0,47.4,0,71.1,0C251.7,97.1,251.7,92.1,248.5,92.1z"/>
				</g>
			</g>
			<g>
				<g>
					<path d="M16.9,166.6c3.2,0,3.2-5,0-5C13.7,161.6,13.7,166.6,16.9,166.6L16.9,166.6z"/>
				</g>
			</g>
			<g>
				<g>
					<path d="M19.4,166.9c0-16.3,0-32.6,0-48.8c-0.8,0.8-1.7,1.7-2.5,2.5c25.2,0,50.3,0,75.5,0c3.7,0,7.3,0,11,0
						c-0.8-0.8-1.7-1.7-2.5-2.5c0,5.3,0,10.6,0,15.8c0,3.2,5,3.2,5,0c0-5.3,0-10.6,0-15.8c0-1.4-1.1-2.5-2.5-2.5
						c-25.2,0-50.3,0-75.5,0c-3.7,0-7.3,0-11,0c-1.4,0-2.5,1.1-2.5,2.5c0,16.3,0,32.6,0,48.8C14.4,170.1,19.4,170.1,19.4,166.9
						L19.4,166.9z"/>
				</g>
			</g>
			<g>
				<g>
					<path d="M412.6,75.9c-28.7,0-57.4,0-86.1,0c-4.2,0-8.3,0-12.5,0c0.8,0.8,1.7,1.7,2.5,2.5c0-23.8,0-47.5,0-71.3
						c-0.8,0.8-1.7,1.7-2.5,2.5c28.7,0,57.4,0,86.1,0c4.2,0,8.3,0,12.5,0c-0.8-0.8-1.7-1.7-2.5-2.5c0,23.8,0,47.5,0,71.3
						c0,3.2,5,3.2,5,0c0-23.8,0-47.5,0-71.3c0-1.4-1.1-2.5-2.5-2.5c-28.7,0-57.4,0-86.1,0c-4.2,0-8.3,0-12.5,0
						c-1.4,0-2.5,1.1-2.5,2.5c0,23.8,0,47.5,0,71.3c0,1.4,1.1,2.5,2.5,2.5c28.7,0,57.4,0,86.1,0c4.2,0,8.3,0,12.5,0
						C415.8,80.9,415.8,75.9,412.6,75.9z"/>
				</g>
			</g>
			<g>
				<g>
					<path d="M314,44.3c28.7,0,57.4,0,86.1,0c4.2,0,8.3,0,12.5,0c1.9,0,1.9-3,0-3c-28.7,0-57.4,0-86.1,0c-4.2,0-8.3,0-12.5,0
						C312,41.3,312,44.3,314,44.3L314,44.3z"/>
				</g>
			</g>
			<g>
				<g>
					<path d="M358.3,83.2c0,19.4,0,38.8,0,58.2c0,6.4,10,6.4,10,0c0-19.4,0-38.8,0-58.2C368.3,76.8,358.3,76.8,358.3,83.2
						L358.3,83.2z"/>
				</g>
			</g>
		</g>
		<g>
			<g>
				<g>
					<path d="M52.7,620.9c-0.7,12.9-20.2,13-20.2,0C32.5,607.9,52,608,52.7,620.9c0.1,1.9,3.1,1.9,3,0c-0.4-7.1-5.7-13.1-13.1-13.1
						c-7.1,0-13.1,6-13.1,13.1c0,6.9,5.6,12.7,12.4,13c7.6,0.4,13.3-5.7,13.7-13C55.8,619,52.8,619,52.7,620.9z"/>
				</g>
			</g>
			<g>
				<g>
					<path d="M39.5,622.2c-3.6-3-2.6-11.3-2.3-15.6c-0.5,0.5-1,1-1.5,1.5c14.8,0,29.6,0,44.5,0c-0.3-0.9-0.5-1.9-0.8-2.8
						c-4.9,3.6-10,6.9-15.3,9.8c-5.9,3.4-17.9,11-24.9,6.8c-1.7-1-3.2,1.6-1.5,2.6c7.2,4.3,17.8-1.5,24.3-4.8
						c6.6-3.4,13-7.4,18.9-11.8c1.1-0.8,0.8-2.8-0.8-2.8c-14.8,0-29.6,0-44.5,0c-0.9,0-1.4,0.7-1.5,1.5c-0.4,5.1-1.2,14,3.2,17.7
						C38.8,625.5,41,623.4,39.5,622.2z"/>
				</g>
			</g>
			<circle class="st0" cx="42.1" cy="620.5" r="0.9"/>
		</g>
		<g>
			<g>
				<g>
					<path d="M371.4,620.9c0.4,7.1,5.7,13.1,13.1,13.1c7.1,0,13.1-6,13.1-13.1c0-6.9-5.6-12.7-12.4-13
						C377.4,607.5,371.7,613.6,371.4,620.9c-0.1,1.9,2.9,1.9,3,0c0.7-12.9,20.2-13,20.2,0c0,13-19.5,12.9-20.2,0
						C374.2,619,371.2,619,371.4,620.9z"/>
				</g>
			</g>
			<g>
				<g>
					<path d="M389.7,624.3c4.4-3.7,3.6-12.6,3.2-17.7c-0.1-0.8-0.6-1.5-1.5-1.5c-14.8,0-29.6,0-44.5,0c-1.6,0-1.9,2-0.8,2.8
						c6,4.4,12.4,8.4,18.9,11.8c6.5,3.4,17,9.2,24.3,4.8c1.7-1,0.1-3.6-1.5-2.6c-7,4.2-18.9-3.5-24.9-6.8c-5.3-3-10.4-6.3-15.3-9.8
						c-0.3,0.9-0.5,1.9-0.8,2.8c14.8,0,29.6,0,44.5,0c-0.5-0.5-1-1-1.5-1.5c0.3,4.3,1.2,12.6-2.3,15.6
						C386.1,623.4,388.2,625.5,389.7,624.3z"/>
				</g>
			</g>
			<circle class="st0" cx="384.9" cy="620.5" r="0.9"/>
		</g>
	</g>
</g>
</svg>
